<svg xmlns="http://www.w3.org/2000/svg" xmlns:xlink="http://www.w3.org/1999/xlink" version="1.1" class="marks" width="463" height="351" viewBox="0 0 463 351"><rect width="463" height="351" fill="white"/><g fill="none" stroke-miterlimit="10" transform="translate(41,14)"><g class="mark-group role-frame root" role="graphics-object" aria-roledescription="group mark container"><g transform="translate(0,0)"><path class="background" aria-hidden="true" d="M0,0h340v300h-340Z" stroke="#ddd" stroke-width="0"/><g><g class="mark-group role-axis" aria-hidden="true"><g transform="translate(0.5,0.5)"><path class="background" aria-hidden="true" d="M0,0h0v0h0Z" pointer-events="none"/><g><g class="mark-rule role-axis-grid" pointer-events="none"><line transform="translate(0,300)" x2="340" y2="0" stroke="gray" stroke-opacity="0.5" stroke-width="1" stroke-dasharray="3,3" opacity="1"/><line transform="translate(0,267)" x2="340" y2="0" stroke="gray" stroke-opacity="0.5" stroke-width="1" stroke-dasharray="3,3" opacity="1"/><line transform="translate(0,233)" x2="340" y2="0" stroke="gray" stroke-opacity="0.5" stroke-width="1" stroke-dasharray="3,3" opacity="1"/><line transform="translate(0,200)" x2="340" y2="0" stroke="gray" stroke-opacity="0.5" stroke-width="1" stroke-dasharray="3,3" opacity="1"/><line transform="translate(0,167)" x2="340" y2="0" stroke="gray" stroke-opacity="0.5" stroke-width="1" stroke-dasharray="3,3" opacity="1"/><line transform="translate(0,133)" x2="340" y2="0" stroke="gray" stroke-opacity="0.5" stroke-width="1" stroke-dasharray="3,3" opacity="1"/><line transform="translate(0,100)" x2="340" y2="0" stroke="gray" stroke-opacity="0.5" stroke-width="1" stroke-dasharray="3,3" opacity="1"/><line transform="translate(0,67)" x2="340" y2="0" stroke="gray" stroke-opacity="0.5" stroke-width="1" stroke-dasharray="3,3" opacity="1"/><line transform="translate(0,33)" x2="340" y2="0" stroke="gray" stroke-opacity="0.5" stroke-width="1" stroke-dasharray="3,3" opacity="1"/><line transform="translate(0,0)" x2="340" y2="0" stroke="gray" stroke-opacity="0.5" stroke-width="1" stroke-dasharray="3,3" opacity="1"/></g></g><path class="foreground" aria-hidden="true" d="" pointer-events="none" display="none"/></g></g><g class="mark-group role-axis" role="graphics-symbol" aria-roledescription="axis" aria-label="X-axis titled 'outcome_a' for a discrete scale with 2 values: 0, 1"><g transform="translate(0.5,300.5)"><path class="background" aria-hidden="true" d="M0,0h0v0h0Z" pointer-events="none"/><g><g class="mark-rule role-axis-tick" pointer-events="none"><line transform="translate(92,0)" x2="0" y2="5" stroke="#888" stroke-width="1" opacity="1"/><line transform="translate(247,0)" x2="0" y2="5" stroke="#888" stroke-width="1" opacity="1"/></g><g class="mark-text role-axis-label" pointer-events="none"><text text-anchor="middle" transform="translate(92.22727272727272,15)" font-family="sans-serif" font-size="10px" fill="#000" opacity="1">0</text><text text-anchor="middle" transform="translate(246.77272727272725,15)" font-family="sans-serif" font-size="10px" fill="#000" opacity="1">1</text></g><g class="mark-rule role-axis-domain" pointer-events="none"><line transform="translate(0,0)" x2="340" y2="0" stroke="#888" stroke-width="1" opacity="1"/></g><g class="mark-text role-axis-title" pointer-events="none"><text text-anchor="middle" transform="translate(170,30)" font-family="sans-serif" font-size="11px" font-weight="bold" fill="#000" opacity="1">outcome_a</text></g></g><path class="foreground" aria-hidden="true" d="" pointer-events="none" display="none"/></g></g><g class="mark-group role-axis" role="graphics-symbol" aria-roledescription="axis" aria-label="Y-axis titled 'score' for a linear scale with values from 0.0 to 0.9"><g transform="translate(0.5,0.5)"><path class="background" aria-hidden="true" d="M0,0h0v0h0Z" pointer-events="none"/><g><g class="mark-rule role-axis-tick" pointer-events="none"><line transform="translate(0,300)" x2="-5" y2="0" stroke="#888" stroke-width="1" opacity="1"/><line transform="translate(0,267)" x2="-5" y2="0" stroke="#888" stroke-width="1" opacity="1"/><line transform="translate(0,233)" x2="-5" y2="0" stroke="#888" stroke-width="1" opacity="1"/><line transform="translate(0,200)" x2="-5" y2="0" stroke="#888" stroke-width="1" opacity="1"/><line transform="translate(0,167)" x2="-5" y2="0" stroke="#888" stroke-width="1" opacity="1"/><line transform="translate(0,133)" x2="-5" y2="0" stroke="#888" stroke-width="1" opacity="1"/><line transform="translate(0,100)" x2="-5" y2="0" stroke="#888" stroke-width="1" opacity="1"/><line transform="translate(0,67)" x2="-5" y2="0" stroke="#888" stroke-width="1" opacity="1"/><line transform="translate(0,33)" x2="-5" y2="0" stroke="#888" stroke-width="1" opacity="1"/><line transform="translate(0,0)" x2="-5" y2="0" stroke="#888" stroke-width="1" opacity="1"/></g><g class="mark-text role-axis-label" pointer-events="none"><text text-anchor="end" transform="translate(-7,303)" font-family="sans-serif" font-size="10px" fill="#000" opacity="1">0.0</text><text text-anchor="end" transform="translate(-7,269.66666666666663)" font-family="sans-serif" font-size="10px" fill="#000" opacity="1">0.1</text><text text-anchor="end" transform="translate(-7,236.33333333333334)" font-family="sans-serif" font-size="10px" fill="#000" opacity="1">0.2</text><text text-anchor="end" transform="translate(-7,203.00000000000003)" font-family="sans-serif" font-size="10px" fill="#000" opacity="1">0.3</text><text text-anchor="end" transform="translate(-7,169.66666666666669)" font-family="sans-serif" font-size="10px" fill="#000" opacity="1">0.4</text><text text-anchor="end" transform="translate(-7,136.33333333333331)" font-family="sans-serif" font-size="10px" fill="#000" opacity="1">0.5</text><text text-anchor="end" transform="translate(-7,103.00000000000001)" font-family="sans-serif" font-size="10px" fill="#000" opacity="1">0.6</text><text text-anchor="end" transform="translate(-7,69.6666666666667)" font-family="sans-serif" font-size="10px" fill="#000" opacity="1">0.7</text><text text-anchor="end" transform="translate(-7,36.333333333333314)" font-family="sans-serif" font-size="10px" fill="#000" opacity="1">0.8</text><text text-anchor="end" transform="translate(-7,3)" font-family="sans-serif" font-size="10px" fill="#000" opacity="1">0.9</text></g><g class="mark-rule role-axis-domain" pointer-events="none"><line transform="translate(0,300)" x2="0" y2="-300" stroke="#888" stroke-width="1" opacity="1"/></g><g class="mark-text role-axis-title" pointer-events="none"><text text-anchor="middle" transform="translate(-24.9013671875,150) rotate(-90) translate(0,-2)" font-family="sans-serif" font-size="11px" font-weight="bold" fill="#000" opacity="1">score</text></g></g><path class="foreground" aria-hidden="true" d="" pointer-events="none" display="none"/></g></g><g class="mark-symbol role-mark layer_0_layer_0_layer_0_marks" role="graphics-object" aria-roledescription="symbol mark container"><path aria-label="outcome_a: 1; score: 0.4; outcome_b: 1" role="graphics-symbol" aria-roledescription="point" transform="translate(278.18181818181813,166.66666666666669)" d="M2.739,0A2.739,2.739,0,1,1,-2.739,0A2.739,2.739,0,1,1,2.739,0" stroke="#f58518" stroke-width="2" opacity="0.7"/></g><g class="mark-rule role-mark layer_0_layer_0_layer_1_layer_0_marks" aria-hidden="true"><line transform="translate(278.18181818181813,33.333333333333314)" x2="0" y2="33.33333333333334" stroke="black"/><line transform="translate(216.36363636363635,233.33333333333334)" x2="0" y2="-33.333333333333314" stroke="black"/><line transform="translate(61.81818181818181,216.66666666666666)" x2="0" y2="-12.499999999999972" stroke="black"/><line transform="translate(123.63636363636363,183.33333333333334)" x2="0" y2="-12.499999999999972" stroke="black"/></g><g class="mark-rule role-mark layer_0_layer_0_layer_1_layer_1_marks" aria-hidden="true"><line transform="translate(278.18181818181813,12.49999999999999)" x2="0" y2="-12.49999999999999" stroke="black"/><line transform="translate(216.36363636363635,133.33333333333331)" x2="0" y2="-33.3333333333333" stroke="black"/><line transform="translate(61.81818181818181,79.16666666666669)" x2="0" y2="-12.499999999999986" stroke="black"/><line transform="translate(123.63636363636363,145.83333333333331)" x2="0" y2="-12.5" stroke="black"/></g><g class="mark-rect role-mark layer_0_layer_1_layer_0_marks" role="graphics-object" aria-roledescription="rect mark container"><path aria-label="outcome_a: 1; score: 0.7; upper_box_score: 0.8625; outcome_b: 1; Max of score: 0.9; Q3 of score: 0.8625; Median of score: 0.825; Q1 of score: 0.7; Min of score: 0.4" role="graphics-symbol" aria-roledescription="box" d="M271.18181818181813,12.49999999999999h14v54.16666666666667h-14Z" fill="#f58518"/><path aria-label="outcome_a: 1; score: 0.3; upper_box_score: 0.5; outcome_b: 0; Max of score: 0.6; Q3 of score: 0.5; Median of score: 0.4; Q1 of score: 0.3; Min of score: 0.2" role="graphics-symbol" aria-roledescription="box" d="M209.36363636363635,133.33333333333331h14v66.66666666666671h-14Z" fill="#4c78a8"/><path aria-label="outcome_a: 0; score: 0.2875; upper_box_score: 0.6625; outcome_b: 0; Max of score: 0.7; Q3 of score: 0.6625; Median of score: 0.475; Q1 of score: 0.2875; Min of score: 0.25" role="graphics-symbol" aria-roledescription="box" d="M54.81818181818181,79.16666666666669h14v125h-14Z" fill="#4c78a8"/><path aria-label="outcome_a: 0; score: 0.3875; upper_box_score: 0.4625; outcome_b: 1; Max of score: 0.5; Q3 of score: 0.4625; Median of score: 0.425; Q1 of score: 0.3875; Min of score: 0.35" role="graphics-symbol" aria-roledescription="box" d="M116.63636363636363,145.83333333333331h14v25.000000000000057h-14Z" fill="#f58518"/></g><g class="mark-rect role-mark layer_0_layer_1_layer_1_marks" aria-hidden="true"><path d="M271.18181818181813,24.50000000000001h14v1h-14Z" fill="white" opacity="0.7"/><path d="M209.36363636363635,166.16666666666669h14v1h-14Z" fill="white" opacity="0.7"/><path d="M54.81818181818181,141.16666666666666h14v1h-14Z" fill="white" opacity="0.7"/><path d="M116.63636363636363,157.83333333333334h14v1h-14Z" fill="white" opacity="0.7"/></g><g class="mark-symbol role-mark layer_1_marks" role="graphics-object" aria-roledescription="symbol mark container"><path aria-label="outcome_a: 1; score: 0.8; outcome_b: 1; ID: P000" role="graphics-symbol" aria-roledescription="point" transform="translate(278.18181818181813,33.333333333333314)" d="M8.66,0A8.66,8.66,0,1,1,-8.66,0A8.66,8.66,0,1,1,8.66,0" fill="#4c78a8" stroke-width="2" opacity="0"/><path aria-label="outcome_a: 1; score: 0.6; outcome_b: 0; ID: P001" role="graphics-symbol" aria-roledescription="point" transform="translate(216.36363636363635,100.00000000000001)" d="M8.66,0A8.66,8.66,0,1,1,-8.66,0A8.66,8.66,0,1,1,8.66,0" fill="#4c78a8" stroke-width="2" opacity="0"/><path aria-label="outcome_a: 1; score: 0.9; outcome_b: 1; ID: P002" role="graphics-symbol" aria-roledescription="point" transform="translate(278.18181818181813,0)" d="M8.66,0A8.66,8.66,0,1,1,-8.66,0A8.66,8.66,0,1,1,8.66,0" fill="#4c78a8" stroke-width="2" opacity="0"/><path aria-label="outcome_a: 0; score: 0.7; outcome_b: 0; ID: P003" role="graphics-symbol" aria-roledescription="point" transform="translate(61.81818181818181,66.6666666666667)" d="M8.66,0A8.66,8.66,0,1,1,-8.66,0A8.66,8.66,0,1,1,8.66,0" fill="#4c78a8" stroke-width="2" opacity="0"/><path aria-label="outcome_a: 0; score: 0.5; outcome_b: 1; ID: P004" role="graphics-symbol" aria-roledescription="point" transform="translate(123.63636363636363,133.33333333333331)" d="M8.66,0A8.66,8.66,0,1,1,-8.66,0A8.66,8.66,0,1,1,8.66,0" fill="#4c78a8" stroke-width="2" opacity="0"/><path aria-label="outcome_a: 0; score: 0.3; outcome_b: 0; ID: P005" role="graphics-symbol" aria-roledescription="point" transform="translate(61.81818181818181,200.00000000000003)" d="M8.66,0A8.66,8.66,0,1,1,-8.66,0A8.66,8.66,0,1,1,8.66,0" fill="#4c78a8" stroke-width="2" opacity="0"/><path aria-label="outcome_a: 1; score: 0.4; outcome_b: 1; ID: P006" role="graphics-symbol" aria-roledescription="point" transform="translate(278.18181818181813,166.66666666666669)" d="M8.66,0A8.66,8.66,0,1,1,-8.66,0A8.66,8.66,0,1,1,8.66,0" fill="#4c78a8" stroke-width="2" opacity="0"/><path aria-label="outcome_a: 1; score: 0.2; outcome_b: 0; ID: P007" role="graphics-symbol" aria-roledescription="point" transform="translate(216.36363636363635,233.33333333333334)" d="M8.66,0A8.66,8.66,0,1,1,-8.66,0A8.66,8.66,0,1,1,8.66,0" fill="#4c78a8" stroke-width="2" opacity="0"/><path aria-label="outcome_a: 1; score: 0.85; outcome_b: 1; ID: P008" role="graphics-symbol" aria-roledescription="point" transform="translate(278.18181818181813,16.666666666666675)" d="M8.66,0A8.66,8.66,0,1,1,-8.66,0A8.66,8.66,0,1,1,8.66,0" fill="#4c78a8" stroke-width="2" opacity="0"/><path aria-label="outcome_a: 0; score: 0.65; outcome_b: 0; ID: P009" role="graphics-symbol" aria-roledescription="point" transform="translate(61.81818181818181,83.33333333333334)" d="M8.66,0A8.66,8.66,0,1,1,-8.66,0A8.66,8.66,0,1,1,8.66,0" fill="#4c78a8" stroke-width="2" opacity="0"/><path aria-label="outcome_a: 0; score: 0.35; outcome_b: 1; ID: P010" role="graphics-symbol" aria-roledescription="point" transform="translate(123.63636363636363,183.33333333333334)" d="M8.66,0A8.66,8.66,0,1,1,-8.66,0A8.66,8.66,0,1,1,8.66,0" fill="#4c78a8" stroke-width="2" opacity="0"/><path aria-label="outcome_a: 0; score: 0.25; outcome_b: 0; ID: P011" role="graphics-symbol" aria-roledescription="point" transform="translate(61.81818181818181,216.66666666666666)" d="M8.66,0A8.66,8.66,0,1,1,-8.66,0A8.66,8.66,0,1,1,8.66,0" fill="#4c78a8" stroke-width="2" opacity="0"/></g><g class="mark-group role-legend" role="graphics-symbol" aria-roledescription="legend" aria-label="Symbol legend titled 'outcome_b' for fill color and stroke color with 2 values: 0, 1"><g transform="translate(358,0)"><path class="background" aria-hidden="true" d="M0,0h59v45h-59Z" pointer-events="none"/><g><g class="mark-group role-legend-entry"><g transform="translate(0,16)"><path class="background" aria-hidden="true" d="M0,0h0v0h0Z" pointer-events="none"/><g><g class="mark-group role-scope" role="graphics-object" aria-roledescription="group mark container"><g transform="translate(0,0)"><path class="background" aria-hidden="true" d="M0,0h21.5615234375v12.5h-21.5615234375Z" pointer-events="none" opacity="1"/><g><g class="mark-symbol role-legend-symbol" pointer-events="none"><path transform="translate(6,6)" d="M5,0A5,5,0,1,1,-5,0A5,5,0,1,1,5,0" fill="#4c78a8" stroke="#4c78a8" stroke-width="1.5" opacity="0.7"/></g><g class="mark-text role-legend-label" pointer-events="none"><text text-anchor="start" transform="translate(16,9)" font-family="sans-serif" font-size="10px" fill="#000" opacity="1">0</text></g></g><path class="foreground" aria-hidden="true" d="" pointer-events="none" display="none"/></g><g transform="translate(0,16)"><path class="background" aria-hidden="true" d="M0,0h21.5615234375v12.5h-21.5615234375Z" pointer-events="none" opacity="1"/><g><g class="mark-symbol role-legend-symbol" pointer-events="none"><path transform="translate(6,6)" d="M5,0A5,5,0,1,1,-5,0A5,5,0,1,1,5,0" fill="#f58518" stroke="#f58518" stroke-width="1.5" opacity="0.7"/></g><g class="mark-text role-legend-label" pointer-events="none"><text text-anchor="start" transform="translate(16,9)" font-family="sans-serif" font-size="10px" fill="#000" opacity="1">1</text></g></g><path class="foreground" aria-hidden="true" d="" pointer-events="none" display="none"/></g></g></g><path class="foreground" aria-hidden="true" d="" pointer-events="none" display="none"/></g></g><g class="mark-text role-legend-title" pointer-events="none"><text text-anchor="start" transform="translate(0,9)" font-family="sans-serif" font-size="11px" font-weight="bold" fill="#000" opacity="1">outcome_b</text></g></g><path class="foreground" aria-hidden="true" d="" pointer-events="none" display="none"/></g></g></g><path class="foreground" aria-hidden="true" d="" display="none"/></g></g></g></svg>