<svg xmlns="http://www.w3.org/2000/svg" xmlns:xlink="http://www.w3.org/1999/xlink" version="1.1" class="marks" width="463" height="347" viewBox="0 0 463 347"><rect width="463" height="347" fill="white"/><g fill="none" stroke-miterlimit="10" transform="translate(41,10)"><g class="mark-group role-frame root" role="graphics-object" aria-roledescription="group mark container"><g transform="translate(0,0)"><path class="background" aria-hidden="true" d="M0,0h340v300h-340Z" stroke="#ddd" stroke-width="0"/><g><g class="mark-group role-axis" aria-hidden="true"><g transform="translate(0.5,0.5)"><path class="background" aria-hidden="true" d="M0,0h0v0h0Z" pointer-events="none"/><g><g class="mark-rule role-axis-grid" pointer-events="none"><line transform="translate(0,300)" x2="340" y2="0" stroke="gray" stroke-opacity="0.5" stroke-width="1" stroke-dasharray="3,3" opacity="1"/><line transform="translate(0,267)" x2="340" y2="0" stroke="gray" stroke-opacity="0.5" stroke-width="1" stroke-dasharray="3,3" opacity="1"/><line transform="translate(0,233)" x2="340" y2="0" stroke="gray" stroke-opacity="0.5" stroke-width="1" stroke-dasharray="3,3" opacity="1"/><line transform="translate(0,200)" x2="340" y2="0" stroke="gray" stroke-opacity="0.5" stroke-width="1" stroke-dasharray="3,3" opacity="1"/><line transform="translate(0,167)" x2="340" y2="0" stroke="gray" stroke-opacity="0.5" stroke-width="1" stroke-dasharray="3,3" opacity="1"/><line transform="translate(0,133)" x2="340" y2="0" stroke="gray" stroke-opacity="0.5" stroke-width="1" stroke-dasharray="3,3" opacity="1"/><line transform="translate(0,100)" x2="340" y2="0" stroke="gray" stroke-opacity="0.5" stroke-width="1" stroke-dasharray="3,3" opacity="1"/><line transform="translate(0,67)" x2="340" y2="0" stroke="gray" stroke-opacity="0.5" stroke-width="1" stroke-dasharray="3,3" opacity="1"/><line transform="translate(0,33)" x2="340" y2="0" stroke="gray" stroke-opacity="0.5" stroke-width="1" stroke-dasharray="3,3" opacity="1"/><line transform="translate(0,0)" x2="340" y2="0" stroke="gray" stroke-opacity="0.5" stroke-width="1" stroke-dasharray="3,3" opacity="1"/></g></g><path class="foreground" aria-hidden="true" d="" pointer-events="none" display="none"/></g></g><g class="mark-group role-axis" role="graphics-symbol" aria-roledescription="axis" aria-label="X-axis titled 'outcome_a' for a discrete scale with 2 values: 0, 1"><g transform="translate(0.5,300.5)"><path class="background" aria-hidden="true" d="M0,0h0v0h0Z" pointer-events="none"/><g><g class="mark-rule role-axis-tick" pointer-events="none"><line transform="translate(92,0)" x2="0" y2="5" stroke="#888" stroke-width="1" opacity="1"/><line transform="translate(247,0)" x2="0" y2="5" stroke="#888" stroke-width="1" opacity="1"/></g><g class="mark-text role-axis-label" pointer-events="none"><text text-anchor="middle" transform="translate(92.22727272727272,15)" font-family="sans-serif" font-size="10px" fill="#000" opacity="1">0</text><text text-anchor="middle" transform="translate(246.77272727272725,15)" font-family="sans-serif" font-size="10px" fill="#000" opacity="1">1</text></g><g class="mark-rule role-axis-domain" pointer-events="none"><line transform="translate(0,0)" x2="340" y2="0" stroke="#888" stroke-width="1" opacity="1"/></g><g class="mark-text role-axis-title" pointer-events="none"><text text-anchor="middle" transform="translate(170,30)" font-family="sans-serif" font-size="11px" font-weight="bold" fill="#000" opacity="1">outcome_a</text></g></g><path class="foreground" aria-hidden="true" d="" pointer-events="none" display="none"/></g></g><g class="mark-group role-axis" role="graphics-symbol" aria-roledescription="axis" aria-label="Y-axis titled 'score' for a linear scale with values from 0.0 to 0.9"><g transform="translate(0.5,0.5)"><path class="background" aria-hidden="true" d="M0,0h0v0h0Z" pointer-events="none"/><g><g class="mark-rule role-axis-tick" pointer-events="none"><line transform="translate(0,300)" x2="-5" y2="0" stroke="#888" stroke-width="1" opacity="1"/><line transform="translate(0,267)" x2="-5" y2="0" stroke="#888" stroke-width="1" opacity="1"/><line transform="translate(0,233)" x2="-5" y2="0" stroke="#888" stroke-width="1" opacity="1"/><line transform="translate(0,200)" x2="-5" y2="0" stroke="#888" stroke-width="1" opacity="1"/><line transform="translate(0,167)" x2="-5" y2="0" stroke="#888" stroke-width="1" opacity="1"/><line transform="translate(0,133)" x2="-5" y2="0" stroke="#888" stroke-width="1" opacity="1"/><line transform="translate(0,100)" x2="-5" y2="0" stroke="#888" stroke-width="1" opacity="1"/><line transform="translate(0,67)" x2="-5" y2="0" stroke="#888" stroke-width="1" opacity="1"/><line transform="translate(0,33)" x2="-5" y2="0" stroke="#888" stroke-width="1" opacity="1"/><line transform="translate(0,0)" x2="-5" y2="0" stroke="#888" stroke-width="1" opacity="1"/></g><g class="mark-text role-axis-label" pointer-events="none"><text text-anchor="end" transform="translate(-7,303)" font-family="sans-serif" font-size="10px" fill="#000" opacity="1">0.0</text><text text-anchor="end" transform="translate(-7,269.66666666666663)" font-family="sans-serif" font-size="10px" fill="#000" opacity="1">0.1</text><text text-anchor="end" transform="translate(-7,236.33333333333334)" font-family="sans-serif" font-size="10px" fill="#000" opacity="1">0.2</text><text text-anchor="end" transform="translate(-7,203.00000000000003)" font-family="sans-serif" font-size="10px" fill="#000" opacity="1">0.3</text><text text-anchor="end" transform="translate(-7,169.66666666666669)" font-family="sans-serif" font-size="10px" fill="#000" opacity="1">0.4</text><text text-anchor="end" transform="translate(-7,136.33333333333331)" font-family="sans-serif" font-size="10px" fill="#000" opacity="1">0.5</text><text text-anchor="end" transform="translate(-7,103.00000000000001)" font-family="sans-serif" font-size="10px" fill="#000" opacity="1">0.6</text><text text-anchor="end" transform="translate(-7,69.6666666666667)" font-family="sans-serif" font-size="10px" fill="#000" opacity="1">0.7</text><text text-anchor="end" transform="translate(-7,36.333333333333314)" font-family="sans-serif" font-size="10px" fill="#000" opacity="1">0.8</text><text text-anchor="end" transform="translate(-7,3)" font-family="sans-serif" font-size="10px" fill="#000" opacity="1">0.9</text></g><g class="mark-rule role-axis-domain" pointer-events="none"><line transform="translate(0,300)" x2="0" y2="-300" stroke="#888" stroke-width="1" opacity="1"/></g><g class="mark-text role-axis-title" pointer-events="none"><text text-anchor="middle" transform="translate(-24.9013671875,150) rotate(-90) translate(0,-2)" font-family="sans-serif" font-size="11px" font-weight="bold" fill="#000" opacity="1">score</text></g></g><path class="foreground" aria-hidden="true" d="" pointer-events="none" display="none"/></g></g><g class="mark-symbol role-mark marks" role="graphics-object" aria-roledescription="symbol mark container"><path aria-label="outcome_a: 1; score: 0.8; outcome_b: 1; ID: P000" role="graphics-symbol" aria-roledescription="circle" transform="translate(306.2705732964738,33.333333333333314)" d="M2.121,0A2.121,2.121,0,1,1,-2.121,0A2.121,2.121,0,1,1,2.121,0" fill="#f58518" stroke-width="2" opacity="0.45"/><path aria-label="outcome_a: 1; score: 0.6; outcome_b: 0; ID: P001" role="graphics-symbol" aria-roledescription="circle" transform="translate(207.552691353987,100.00000000000001)" d="M2.121,0A2.121,2.121,0,1,1,-2.121,0A2.121,2.121,0,1,1,2.121,0" fill="#4c78a8" stroke-width="2" opacity="0.45"/><path aria-label="outcome_a: 1; score: 0.9; outcome_b: 1; ID: P002" role="graphics-symbol" aria-roledescription="circle" transform="translate(287.50183897025397,0)" d="M2.121,0A2.121,2.121,0,1,1,-2.121,0A2.121,2.121,0,1,1,2.121,0" fill="#f58518" stroke-width="2" opacity="0.45"/><path aria-label="outcome_a: 0; score: 0.7; outcome_b: 0; ID: P003" role="graphics-symbol" aria-roledescription="circle" transform="translate(30.909090909090907,66.6666666666667)" d="M2.121,0A2.121,2.121,0,1,1,-2.121,0A2.121,2.121,0,1,1,2.121,0" fill="#4c78a8" stroke-width="2" opacity="0.45"/><path aria-label="outcome_a: 0; score: 0.5; outcome_b: 1; ID: P004" role="graphics-symbol" aria-roledescription="circle" transform="translate(136.97285737530342,133.33333333333331)" d="M2.121,0A2.121,2.121,0,1,1,-2.121,0A2.121,2.121,0,1,1,2.121,0" fill="#f58518" stroke-width="2" opacity="0.45"/><path aria-label="outcome_a: 0; score: 0.3; outcome_b: 0; ID: P005" role="graphics-symbol" aria-roledescription="circle" transform="translate(37.37496278898462,200.00000000000003)" d="M2.121,0A2.121,2.121,0,1,1,-2.121,0A2.121,2.121,0,1,1,2.121,0" fill="#4c78a8" stroke-width="2" opacity="0.45"/><path aria-label="outcome_a: 1; score: 0.4; outcome_b: 1; ID: P006" role="graphics-symbol" aria-roledescription="circle" transform="translate(303.5860830735347,166.66666666666669)" d="M2.121,0A2.121,2.121,0,1,1,-2.121,0A2.121,2.121,0,1,1,2.121,0" fill="#f58518" stroke-width="2" opacity="0.45"/><path aria-label="outcome_a: 1; score: 0.2; outcome_b: 0; ID: P007" role="graphics-symbol" aria-roledescription="circle" transform="translate(187.42046675339304,233.33333333333334)" d="M2.121,0A2.121,2.121,0,1,1,-2.121,0A2.121,2.121,0,1,1,2.121,0" fill="#4c78a8" stroke-width="2" opacity="0.45"/><path aria-label="outcome_a: 1; score: 0.85; outcome_b: 1; ID: P008" role="graphics-symbol" aria-roledescription="circle" transform="translate(289.9827276710597,16.666666666666675)" d="M2.121,0A2.121,2.121,0,1,1,-2.121,0A2.121,2.121,0,1,1,2.121,0" fill="#f58518" stroke-width="2" opacity="0.45"/><path aria-label="outcome_a: 0; score: 0.65; outcome_b: 0; ID: P009" role="graphics-symbol" aria-roledescription="circle" transform="translate(45.276907167386014,83.33333333333334)" d="M2.121,0A2.121,2.121,0,1,1,-2.121,0A2.121,2.121,0,1,1,2.121,0" fill="#4c78a8" stroke-width="2" opacity="0.45"/><path aria-label="outcome_a: 0; score: 0.35; outcome_b: 1; ID: P010" role="graphics-symbol" aria-roledescription="circle" transform="translate(154.54545454545453,183.33333333333334)" d="M2.121,0A2.121,2.121,0,1,1,-2.121,0A2.121,2.121,0,1,1,2.121,0" fill="#f58518" stroke-width="2" opacity="0.45"/><path aria-label="outcome_a: 0; score: 0.25; outcome_b: 0; ID: P011" role="graphics-symbol" aria-roledescription="circle" transform="translate(41.79216480299199,216.66666666666666)" d="M2.121,0A2.121,2.121,0,1,1,-2.121,0A2.121,2.121,0,1,1,2.121,0" fill="#4c78a8" stroke-width="2" opacity="0.45"/></g><g class="mark-group role-legend" role="graphics-symbol" aria-roledescription="legend" aria-label="Symbol legend titled 'outcome_b' for fill color with 2 values: 0, 1"><g transform="translate(358,0)"><path class="background" aria-hidden="true" d="M0,0h59v40h-59Z" pointer-events="none"/><g><g class="mark-group role-legend-entry"><g transform="translate(0,16)"><path class="background" aria-hidden="true" d="M0,0h0v0h0Z" pointer-events="none"/><g><g class="mark-group role-scope" role="graphics-object" aria-roledescription="group mark container"><g transform="translate(0,0)"><path class="background" aria-hidden="true" d="M0,0h21.5615234375v11h-21.5615234375Z" pointer-events="none" opacity="1"/><g><g class="mark-symbol role-legend-symbol" pointer-events="none"><path transform="translate(6,6)" d="M5,0A5,5,0,1,1,-5,0A5,5,0,1,1,5,0" fill="#4c78a8" stroke-width="1.5" opacity="0.45"/></g><g class="mark-text role-legend-label" pointer-events="none"><text text-anchor="start" transform="translate(16,9)" font-family="sans-serif" font-size="10px" fill="#000" opacity="1">0</text></g></g><path class="foreground" aria-hidden="true" d="" pointer-events="none" display="none"/></g><g transform="translate(0,13)"><path class="background" aria-hidden="true" d="M0,0h21.5615234375v11h-21.5615234375Z" pointer-events="none" opacity="1"/><g><g class="mark-symbol role-legend-symbol" pointer-events="none"><path transform="translate(6,6)" d="M5,0A5,5,0,1,1,-5,0A5,5,0,1,1,5,0" fill="#f58518" stroke-width="1.5" opacity="0.45"/></g><g class="mark-text role-legend-label" pointer-events="none"><text text-anchor="start" transform="translate(16,9)" font-family="sans-serif" font-size="10px" fill="#000" opacity="1">1</text></g></g><path class="foreground" aria-hidden="true" d="" pointer-events="none" display="none"/></g></g></g><path class="foreground" aria-hidden="true" d="" pointer-events="none" display="none"/></g></g><g class="mark-text role-legend-title" pointer-events="none"><text text-anchor="start" transform="translate(0,9)" font-family="sans-serif" font-size="11px" font-weight="bold" fill="#000" opacity="1">outcome_b</text></g></g><path class="foreground" aria-hidden="true" d="" pointer-events="none" display="none"/></g></g></g><path class="foreground" aria-hidden="true" d="" display="none"/></g></g></g></svg>