<svg xmlns="http://www.w3.org/2000/svg" xmlns:xlink="http://www.w3.org/1999/xlink" version="1.1" class="marks" width="448" height="447" viewBox="0 0 448 447"><rect width="448" height="447" fill="white"/><g fill="none" stroke-miterlimit="10" transform="translate(41,10)"><g class="mark-group role-frame root" role="graphics-object" aria-roledescription="group mark container"><g transform="translate(0,0)"><path class="background" aria-hidden="true" d="M0,0h400v400h-400Z" stroke="#ddd" stroke-width="0"/><g><g class="mark-group role-axis" aria-hidden="true"><g transform="translate(0.5,400.5)"><path class="background" aria-hidden="true" d="M0,0h0v0h0Z" pointer-events="none"/><g><g class="mark-rule role-axis-grid" pointer-events="none"><line transform="translate(0,-400)" x2="0" y2="400" stroke="#444" stroke-opacity="0.4" stroke-width="0.75" stroke-dasharray="3,3" opacity="1"/><line transform="translate(40,-400)" x2="0" y2="400" stroke="#444" stroke-opacity="0.4" stroke-width="0.75" stroke-dasharray="3,3" opacity="1"/><line transform="translate(80,-400)" x2="0" y2="400" stroke="#444" stroke-opacity="0.4" stroke-width="0.75" stroke-dasharray="3,3" opacity="1"/><line transform="translate(120,-400)" x2="0" y2="400" stroke="#444" stroke-opacity="0.4" stroke-width="0.75" stroke-dasharray="3,3" opacity="1"/><line transform="translate(160,-400)" x2="0" y2="400" stroke="#444" stroke-opacity="0.4" stroke-width="0.75" stroke-dasharray="3,3" opacity="1"/><line transform="translate(200,-400)" x2="0" y2="400" stroke="#444" stroke-opacity="0.4" stroke-width="0.75" stroke-dasharray="3,3" opacity="1"/><line transform="translate(240,-400)" x2="0" y2="400" stroke="#444" stroke-opacity="0.4" stroke-width="0.75" stroke-dasharray="3,3" opacity="1"/><line transform="translate(280,-400)" x2="0" y2="400" stroke="#444" stroke-opacity="0.4" stroke-width="0.75" stroke-dasharray="3,3" opacity="1"/><line transform="translate(320,-400)" x2="0" y2="400" stroke="#444" stroke-opacity="0.4" stroke-width="0.75" stroke-dasharray="3,3" opacity="1"/><line transform="translate(360,-400)" x2="0" y2="400" stroke="#444" stroke-opacity="0.4" stroke-width="0.75" stroke-dasharray="3,3" opacity="1"/><line transform="translate(400,-400)" x2="0" y2="400" stroke="#444" stroke-opacity="0.4" stroke-width="0.75" stroke-dasharray="3,3" opacity="1"/></g></g><path class="foreground" aria-hidden="true" d="" pointer-events="none" display="none"/></g></g><g class="mark-group role-axis" aria-hidden="true"><g transform="translate(0.5,0.5)"><path class="background" aria-hidden="true" d="M0,0h0v0h0Z" pointer-events="none"/><g><g class="mark-rule role-axis-grid" pointer-events="none"><line transform="translate(0,400)" x2="400" y2="0" stroke="#444" stroke-opacity="0.4" stroke-width="0.75" stroke-dasharray="3,3" opacity="1"/><line transform="translate(0,360)" x2="400" y2="0" stroke="#444" stroke-opacity="0.4" stroke-width="0.75" stroke-dasharray="3,3" opacity="1"/><line transform="translate(0,320)" x2="400" y2="0" stroke="#444" stroke-opacity="0.4" stroke-width="0.75" stroke-dasharray="3,3" opacity="1"/><line transform="translate(0,280)" x2="400" y2="0" stroke="#444" stroke-opacity="0.4" stroke-width="0.75" stroke-dasharray="3,3" opacity="1"/><line transform="translate(0,240)" x2="400" y2="0" stroke="#444" stroke-opacity="0.4" stroke-width="0.75" stroke-dasharray="3,3" opacity="1"/><line transform="translate(0,200)" x2="400" y2="0" stroke="#444" stroke-opacity="0.4" stroke-width="0.75" stroke-dasharray="3,3" opacity="1"/><line transform="translate(0,160)" x2="400" y2="0" stroke="#444" stroke-opacity="0.4" stroke-width="0.75" stroke-dasharray="3,3" opacity="1"/><line transform="translate(0,120)" x2="400" y2="0" stroke="#444" stroke-opacity="0.4" stroke-width="0.75" stroke-dasharray="3,3" opacity="1"/><line transform="translate(0,80)" x2="400" y2="0" stroke="#444" stroke-opacity="0.4" stroke-width="0.75" stroke-dasharray="3,3" opacity="1"/><line transform="translate(0,40)" x2="400" y2="0" stroke="#444" stroke-opacity="0.4" stroke-width="0.75" stroke-dasharray="3,3" opacity="1"/><line transform="translate(0,0)" x2="400" y2="0" stroke="#444" stroke-opacity="0.4" stroke-width="0.75" stroke-dasharray="3,3" opacity="1"/></g></g><path class="foreground" aria-hidden="true" d="" pointer-events="none" display="none"/></g></g><g class="mark-group role-axis" role="graphics-symbol" aria-roledescription="axis" aria-label="X-axis titled 'Sensitivity' for a linear scale with values from 0.0 to 1.0"><g transform="translate(0.5,400.5)"><path class="background" aria-hidden="true" d="M0,0h0v0h0Z" pointer-events="none"/><g><g class="mark-rule role-axis-tick" pointer-events="none"><line transform="translate(0,0)" x2="0" y2="5" stroke="#888" stroke-width="1" opacity="1"/><line transform="translate(40,0)" x2="0" y2="5" stroke="#888" stroke-width="1" opacity="1"/><line transform="translate(80,0)" x2="0" y2="5" stroke="#888" stroke-width="1" opacity="1"/><line transform="translate(120,0)" x2="0" y2="5" stroke="#888" stroke-width="1" opacity="1"/><line transform="translate(160,0)" x2="0" y2="5" stroke="#888" stroke-width="1" opacity="1"/><line transform="translate(200,0)" x2="0" y2="5" stroke="#888" stroke-width="1" opacity="1"/><line transform="translate(240,0)" x2="0" y2="5" stroke="#888" stroke-width="1" opacity="1"/><line transform="translate(280,0)" x2="0" y2="5" stroke="#888" stroke-width="1" opacity="1"/><line transform="translate(320,0)" x2="0" y2="5" stroke="#888" stroke-width="1" opacity="1"/><line transform="translate(360,0)" x2="0" y2="5" stroke="#888" stroke-width="1" opacity="1"/><line transform="translate(400,0)" x2="0" y2="5" stroke="#888" stroke-width="1" opacity="1"/></g><g class="mark-text role-axis-label" pointer-events="none"><text text-anchor="start" transform="translate(0,15)" font-family="sans-serif" font-size="10px" fill="#000" opacity="1">0.0</text><text text-anchor="middle" transform="translate(40,15)" font-family="sans-serif" font-size="10px" fill="#000" opacity="1">0.1</text><text text-anchor="middle" transform="translate(80,15)" font-family="sans-serif" font-size="10px" fill="#000" opacity="1">0.2</text><text text-anchor="middle" transform="translate(120,15)" font-family="sans-serif" font-size="10px" fill="#000" opacity="1">0.3</text><text text-anchor="middle" transform="translate(160,15)" font-family="sans-serif" font-size="10px" fill="#000" opacity="1">0.4</text><text text-anchor="middle" transform="translate(200,15)" font-family="sans-serif" font-size="10px" fill="#000" opacity="1">0.5</text><text text-anchor="middle" transform="translate(240,15)" font-family="sans-serif" font-size="10px" fill="#000" opacity="1">0.6</text><text text-anchor="middle" transform="translate(280,15)" font-family="sans-serif" font-size="10px" fill="#000" opacity="1">0.7</text><text text-anchor="middle" transform="translate(320,15)" font-family="sans-serif" font-size="10px" fill="#000" opacity="1">0.8</text><text text-anchor="middle" transform="translate(360,15)" font-family="sans-serif" font-size="10px" fill="#000" opacity="1">0.9</text><text text-anchor="end" transform="translate(400,15)" font-family="sans-serif" font-size="10px" fill="#000" opacity="1">1.0</text></g><g class="mark-rule role-axis-domain" pointer-events="none"><line transform="translate(0,0)" x2="400" y2="0" stroke="#888" stroke-width="1" opacity="1"/></g><g class="mark-text role-axis-title" pointer-events="none"><text text-anchor="middle" transform="translate(200,30)" font-family="sans-serif" font-size="11px" font-weight="bold" fill="#000" opacity="1">Sensitivity</text></g></g><path class="foreground" aria-hidden="true" d="" pointer-events="none" display="none"/></g></g><g class="mark-group role-axis" role="graphics-symbol" aria-roledescription="axis" aria-label="Y-axis titled 'Specificity' for a linear scale with values from 0.0 to 1.0"><g transform="translate(0.5,0.5)"><path class="background" aria-hidden="true" d="M0,0h0v0h0Z" pointer-events="none"/><g><g class="mark-rule role-axis-tick" pointer-events="none"><line transform="translate(0,400)" x2="-5" y2="0" stroke="#888" stroke-width="1" opacity="1"/><line transform="translate(0,360)" x2="-5" y2="0" stroke="#888" stroke-width="1" opacity="1"/><line transform="translate(0,320)" x2="-5" y2="0" stroke="#888" stroke-width="1" opacity="1"/><line transform="translate(0,280)" x2="-5" y2="0" stroke="#888" stroke-width="1" opacity="1"/><line transform="translate(0,240)" x2="-5" y2="0" stroke="#888" stroke-width="1" opacity="1"/><line transform="translate(0,200)" x2="-5" y2="0" stroke="#888" stroke-width="1" opacity="1"/><line transform="translate(0,160)" x2="-5" y2="0" stroke="#888" stroke-width="1" opacity="1"/><line transform="translate(0,120)" x2="-5" y2="0" stroke="#888" stroke-width="1" opacity="1"/><line transform="translate(0,80)" x2="-5" y2="0" stroke="#888" stroke-width="1" opacity="1"/><line transform="translate(0,40)" x2="-5" y2="0" stroke="#888" stroke-width="1" opacity="1"/><line transform="translate(0,0)" x2="-5" y2="0" stroke="#888" stroke-width="1" opacity="1"/></g><g class="mark-text role-axis-label" pointer-events="none"><text text-anchor="end" transform="translate(-7,403)" font-family="sans-serif" font-size="10px" fill="#000" opacity="1">0.0</text><text text-anchor="end" transform="translate(-7,363)" font-family="sans-serif" font-size="10px" fill="#000" opacity="1">0.1</text><text text-anchor="end" transform="translate(-7,323)" font-family="sans-serif" font-size="10px" fill="#000" opacity="1">0.2</text><text text-anchor="end" transform="translate(-7,283)" font-family="sans-serif" font-size="10px" fill="#000" opacity="1">0.3</text><text text-anchor="end" transform="translate(-7,243)" font-family="sans-serif" font-size="10px" fill="#000" opacity="1">0.4</text><text text-anchor="end" transform="translate(-7,203)" font-family="sans-serif" font-size="10px" fill="#000" opacity="1">0.5</text><text text-anchor="end" transform="translate(-7,163)" font-family="sans-serif" font-size="10px" fill="#000" opacity="1">0.6</text><text text-anchor="end" transform="translate(-7,123.00000000000001)" font-family="sans-serif" font-size="10px" fill="#000" opacity="1">0.7</text><text text-anchor="end" transform="translate(-7,82.99999999999999)" font-family="sans-serif" font-size="10px" fill="#000" opacity="1">0.8</text><text text-anchor="end" transform="translate(-7,42.99999999999999)" font-family="sans-serif" font-size="10px" fill="#000" opacity="1">0.9</text><text text-anchor="end" transform="translate(-7,3)" font-family="sans-serif" font-size="10px" fill="#000" opacity="1">1.0</text></g><g class="mark-rule role-axis-domain" pointer-events="none"><line transform="translate(0,400)" x2="0" y2="-400" stroke="#888" stroke-width="1" opacity="1"/></g><g class="mark-text role-axis-title" pointer-events="none"><text text-anchor="middle" transform="translate(-24.9013671875,200) rotate(-90) translate(0,-2)" font-family="sans-serif" font-size="11px" font-weight="bold" fill="#000" opacity="1">Specificity</text></g></g><path class="foreground" aria-hidden="true" d="" pointer-events="none" display="none"/></g></g><g class="mark-line role-mark layer_0_marks" role="graphics-object" aria-roledescription="line mark container"><path aria-label="x: 0; y: 1" role="graphics-symbol" aria-roledescription="line mark" d="M0,0L400,400" stroke="#444" stroke-width="0.75" opacity="0.4"/></g><g class="mark-line role-mark layer_1_marks" role="graphics-object" aria-roledescription="line mark container"><path aria-label="Sensitivity: 0; Specificity: 1; sensitivity: 0.000; specificity: 1.000" role="graphics-symbol" aria-roledescription="line mark" d="M0,0L40,0L80,0L80,44.444L120,44.444L160,44.444L160,88.889L200,88.889L240,88.889L240,133.333L280,133.333L280,177.778L320,177.778L360,177.778L400,177.778L400,222.222L400,266.667L400,311.111L400,355.556L400,400L400,400" stroke="steelblue" stroke-width="2"/></g></g><path class="foreground" aria-hidden="true" d="" display="none"/></g></g></g></svg>