<svg xmlns="http://www.w3.org/2000/svg" xmlns:xlink="http://www.w3.org/1999/xlink" version="1.1" class="marks" width="371" height="370" viewBox="0 0 371 370"><rect width="371" height="370" fill="white"/><g fill="none" stroke-miterlimit="10" transform="translate(42,60)"><g class="mark-group role-frame root" role="graphics-object" aria-roledescription="group mark container"><g transform="translate(0,0)"><path class="background" aria-hidden="true" d="M0,0h0v0h0Z"/><g><g class="mark-group role-column-title column-title" role="graphics-object" aria-roledescription="group mark container"><g transform="translate(162,-34)"><path class="background" aria-hidden="true" d="M0,0h0v0h0Z"/><g><g class="mark-group role-title"><g transform="translate(0,-21)"><path class="background" aria-hidden="true" d="M0,0h0v0h0Z" pointer-events="none"/><g><g class="mark-text role-title-text" role="graphics-symbol" aria-roledescription="title" aria-label="Title text 'group'" pointer-events="none"><text text-anchor="middle" transform="translate(0,9)" font-family="sans-serif" font-size="11px" font-weight="bold" fill="#000" opacity="1">group</text></g></g><path class="foreground" aria-hidden="true" d="" pointer-events="none" display="none"/></g></g></g><path class="foreground" aria-hidden="true" d="" display="none"/></g></g><g class="mark-group role-row-header row_header" role="graphics-object" aria-roledescription="group mark container"><g transform="translate(-1,0)"><path class="background" aria-hidden="true" d="M0,0h0v300h0Z"/><g><g class="mark-group role-axis" role="graphics-symbol" aria-roledescription="axis" aria-label="Y-axis titled 'value' for a linear scale with values from 0.0 to 2.6"><g transform="translate(0.5,0.5)"><path class="background" aria-hidden="true" d="M0,0h0v0h0Z" pointer-events="none"/><g><g class="mark-rule role-axis-tick" pointer-events="none"><line transform="translate(0,300)" x2="-5" y2="0" stroke="#888" stroke-width="1" opacity="1"/><line transform="translate(0,242)" x2="-5" y2="0" stroke="#888" stroke-width="1" opacity="1"/><line transform="translate(0,185)" x2="-5" y2="0" stroke="#888" stroke-width="1" opacity="1"/><line transform="translate(0,127)" x2="-5" y2="0" stroke="#888" stroke-width="1" opacity="1"/><line transform="translate(0,69)" x2="-5" y2="0" stroke="#888" stroke-width="1" opacity="1"/><line transform="translate(0,12)" x2="-5" y2="0" stroke="#888" stroke-width="1" opacity="1"/></g><g class="mark-text role-axis-label" pointer-events="none"><text text-anchor="end" transform="translate(-7,303)" font-family="sans-serif" font-size="10px" fill="#000" opacity="1">0.0</text><text text-anchor="end" transform="translate(-7,245.30769230769232)" font-family="sans-serif" font-size="10px" fill="#000" opacity="1">0.5</text><text text-anchor="end" transform="translate(-7,187.6153846153846)" font-family="sans-serif" font-size="10px" fill="#000" opacity="1">1.0</text><text text-anchor="end" transform="translate(-7,129.92307692307693)" font-family="sans-serif" font-size="10px" fill="#000" opacity="1">1.5</text><text text-anchor="end" transform="translate(-7,72.23076923076925)" font-family="sans-serif" font-size="10px" fill="#000" opacity="1">2.0</text><text text-anchor="end" transform="translate(-7,14.538461538461565)" font-family="sans-serif" font-size="10px" fill="#000" opacity="1">2.5</text></g><g class="mark-rule role-axis-domain" pointer-events="none"><line transform="translate(0,300)" x2="0" y2="-300" stroke="#888" stroke-width="1" opacity="1"/></g><g class="mark-text role-axis-title" pointer-events="none"><text text-anchor="middle" transform="translate(-24.9013671875,150) rotate(-90) translate(0,-2)" font-family="sans-serif" font-size="11px" font-weight="bold" fill="#000" opacity="1">value</text></g></g><path class="foreground" aria-hidden="true" d="" pointer-events="none" display="none"/></g></g></g><path class="foreground" aria-hidden="true" d="" display="none"/></g></g><g class="mark-group role-column-header column_header" role="graphics-object" aria-roledescription="group mark container"><g transform="translate(0,-4)"><path class="background" aria-hidden="true" d="M0,0h150v0h-150Z"/><g><g class="mark-group role-title"><g transform="translate(75,-20)"><path class="background" aria-hidden="true" d="M0,0h0v0h0Z" pointer-events="none"/><g><g class="mark-text role-title-text" role="graphics-symbol" aria-roledescription="title" aria-label="Title text 'A'" pointer-events="none"><text text-anchor="middle" transform="translate(0,8)" font-family="sans-serif" font-size="10px" fill="#000" opacity="1">A</text></g></g><path class="foreground" aria-hidden="true" d="" pointer-events="none" display="none"/></g></g></g><path class="foreground" aria-hidden="true" d="" display="none"/></g><g transform="translate(173,-4)"><path class="background" aria-hidden="true" d="M0,0h150v0h-150Z"/><g><g class="mark-group role-title"><g transform="translate(75,-20)"><path class="background" aria-hidden="true" d="M0,0h0v0h0Z" pointer-events="none"/><g><g class="mark-text role-title-text" role="graphics-symbol" aria-roledescription="title" aria-label="Title text 'B'" pointer-events="none"><text text-anchor="middle" transform="translate(0,8)" font-family="sans-serif" font-size="10px" fill="#000" opacity="1">B</text></g></g><path class="foreground" aria-hidden="true" d="" pointer-events="none" display="none"/></g></g></g><path class="foreground" aria-hidden="true" d="" display="none"/></g></g><g class="mark-group role-scope cell" role="graphics-object" aria-roledescription="group mark container"><g transform="translate(0,0)"><path class="background" aria-hidden="true" d="M0.5,0.5h150v300h-150Z" stroke="#ddd"/><g><g class="mark-group role-axis" aria-hidden="true"><g transform="translate(0.5,0.5)"><path class="background" aria-hidden="true" d="M0,0h0v0h0Z" pointer-events="none"/><g><g class="mark-rule role-axis-grid" pointer-events="none"><line transform="translate(0,300)" x2="150" y2="0" stroke="#ddd" stroke-width="1" opacity="1"/><line transform="translate(0,242)" x2="150" y2="0" stroke="#ddd" stroke-width="1" opacity="1"/><line transform="translate(0,185)" x2="150" y2="0" stroke="#ddd" stroke-width="1" opacity="1"/><line transform="translate(0,127)" x2="150" y2="0" stroke="#ddd" stroke-width="1" opacity="1"/><line transform="translate(0,69)" x2="150" y2="0" stroke="#ddd" stroke-width="1" opacity="1"/><line transform="translate(0,12)" x2="150" y2="0" stroke="#ddd" stroke-width="1" opacity="1"/></g></g><path class="foreground" aria-hidden="true" d="" pointer-events="none" display="none"/></g></g><g class="mark-symbol role-mark child_layer_0_layer_0_layer_0_marks" role="graphics-symbol" aria-roledescription="symbol mark container"/><g class="mark-rule role-mark child_layer_0_layer_0_layer_1_layer_0_marks" aria-hidden="true"><line transform="translate(75,219.23076923076925)" x2="0" y2="-27.40384615384619" stroke="black"/></g><g class="mark-rule role-mark child_layer_0_layer_0_layer_1_layer_1_marks" aria-hidden="true"><line transform="translate(75,154.3269230769231)" x2="0" y2="-27.40384615384616" stroke="black"/></g><g class="mark-rect role-mark child_layer_0_layer_0_layer_1_layer_2_marks" aria-hidden="true"><path d="M0,218.73076923076925h150v1h-150Z" fill="black" opacity="1"/></g><g class="mark-rect role-mark child_layer_0_layer_0_layer_1_layer_3_marks" aria-hidden="true"><path d="M0,126.42307692307693h150v1h-150Z" fill="black" opacity="1"/></g><g class="mark-rect role-mark child_layer_0_layer_1_layer_0_marks" role="graphics-object" aria-roledescription="rect mark container"><path aria-label="group: A; value: 0.9375; upper_box_value: 1.2625; Max of value: 1.5; Q3 of value: 1.2625; Median of value: 1.075; Q1 of value: 0.9375; Min of value: 0.7" role="graphics-symbol" aria-roledescription="box" d="M65,154.3269230769231h20v37.49999999999997h-20Z" fill="#4c78a8"/></g><g class="mark-rect role-mark child_layer_0_layer_1_layer_1_marks" aria-hidden="true"><path d="M65,175.46153846153842h20v1h-20Z" fill="black" opacity="0.7"/></g><g class="mark-area role-mark child_layer_1_marks" role="graphics-object" aria-roledescription="area mark container"><path aria-label="density: 0.575783035164; value: 1.5" role="graphics-symbol" aria-roledescription="area mark" d="M53.98,126.923L55.086,127.385L56.187,127.846L57.283,128.308L58.371,128.769L59.453,129.231L60.526,129.692L61.591,130.154L62.646,130.615L63.692,131.077L64.727,131.538L65.751,132L66.764,132.462L67.765,132.923L68.754,133.385L69.731,133.846L70.695,134.308L71.646,134.769L72.583,135.231L73.508,135.692L74.419,136.154L75.317,136.615L76.201,137.077L77.072,137.538L77.93,138L78.775,138.462L79.607,138.923L80.426,139.385L81.233,139.846L82.027,140.308L82.81,140.769L83.582,141.231L84.342,141.692L85.093,142.154L85.833,142.615L86.563,143.077L87.285,143.538L87.998,144L88.703,144.462L89.401,144.923L90.092,145.385L90.777,145.846L91.456,146.308L92.131,146.769L92.801,147.231L93.467,147.692L94.131,148.154L94.792,148.615L95.45,149.077L96.108,149.538L96.765,150L97.421,150.462L98.078,150.923L98.736,151.385L99.394,151.846L100.055,152.308L100.717,152.769L101.382,153.231L102.049,153.692L102.719,154.154L103.392,154.615L104.069,155.077L104.749,155.538L105.432,156L106.119,156.462L106.81,156.923L107.503,157.385L108.201,157.846L108.901,158.308L109.605,158.769L110.311,159.231L111.019,159.692L111.729,160.154L112.441,160.615L113.154,161.077L113.867,161.538L114.58,162L115.293,162.462L116.003,162.923L116.712,163.385L117.417,163.846L118.119,164.308L118.816,164.769L119.508,165.231L120.192,165.692L120.87,166.154L121.539,166.615L122.198,167.077L122.847,167.538L123.485,168L124.109,168.462L124.72,168.923L125.317,169.385L125.897,169.846L126.461,170.308L127.006,170.769L127.533,171.231L128.039,171.692L128.524,172.154L128.988,172.615L129.427,173.077L129.843,173.538L130.234,174L130.599,174.462L130.937,174.923L131.247,175.385L131.529,175.846L131.782,176.308L132.005,176.769L132.198,177.231L132.36,177.692L132.49,178.154L132.589,178.615L132.655,179.077L132.688,179.538L132.689,180L132.656,180.462L132.59,180.923L132.49,181.385L132.357,181.846L132.191,182.308L131.991,182.769L131.758,183.231L131.493,183.692L131.194,184.154L130.863,184.615L130.5,185.077L130.105,185.538L129.679,186L129.222,186.462L128.735,186.923L128.219,187.385L127.673,187.846L127.1,188.308L126.498,188.769L125.87,189.231L125.215,189.692L124.535,190.154L123.831,190.615L123.102,191.077L122.351,191.538L121.576,192L120.781,192.462L119.964,192.923L119.128,193.385L118.272,193.846L117.398,194.308L116.506,194.769L115.597,195.231L114.672,195.692L113.731,196.154L112.776,196.615L111.806,197.077L110.823,197.538L109.826,198L108.817,198.462L107.797,198.923L106.765,199.385L105.722,199.846L104.669,200.308L103.605,200.769L102.533,201.231L101.451,201.692L100.36,202.154L99.261,202.615L98.154,203.077L97.039,203.538L95.916,204L94.786,204.462L93.649,204.923L92.505,205.385L91.354,205.846L90.197,206.308L89.033,206.769L87.863,207.231L86.688,207.692L85.506,208.154L84.319,208.615L83.126,209.077L81.928,209.538L80.725,210L79.517,210.462L78.305,210.923L77.088,211.385L75.866,211.846L74.641,212.308L73.411,212.769L72.179,213.231L70.943,213.692L69.704,214.154L68.462,214.615L67.219,215.077L65.973,215.538L64.727,216L63.479,216.462L62.231,216.923L60.982,217.385L59.735,217.846L58.488,218.308L57.243,218.769L55.999,219.231L0,219.231L0,218.769L0,218.308L0,217.846L0,217.385L0,216.923L0,216.462L0,216L0,215.538L0,215.077L0,214.615L0,214.154L0,213.692L0,213.231L0,212.769L0,212.308L0,211.846L0,211.385L0,210.923L0,210.462L0,210L0,209.538L0,209.077L0,208.615L0,208.154L0,207.692L0,207.231L0,206.769L0,206.308L0,205.846L0,205.385L0,204.923L0,204.462L0,204L0,203.538L0,203.077L0,202.615L0,202.154L0,201.692L0,201.231L0,200.769L0,200.308L0,199.846L0,199.385L0,198.923L0,198.462L0,198L0,197.538L0,197.077L0,196.615L0,196.154L0,195.692L0,195.231L0,194.769L0,194.308L0,193.846L0,193.385L0,192.923L0,192.462L0,192L0,191.538L0,191.077L0,190.615L0,190.154L0,189.692L0,189.231L0,188.769L0,188.308L0,187.846L0,187.385L0,186.923L0,186.462L0,186L0,185.538L0,185.077L0,184.615L0,184.154L0,183.692L0,183.231L0,182.769L0,182.308L0,181.846L0,181.385L0,180.923L0,180.462L0,180L0,179.538L0,179.077L0,178.615L0,178.154L0,177.692L0,177.231L0,176.769L0,176.308L0,175.846L0,175.385L0,174.923L0,174.462L0,174L0,173.538L0,173.077L0,172.615L0,172.154L0,171.692L0,171.231L0,170.769L0,170.308L0,169.846L0,169.385L0,168.923L0,168.462L0,168L0,167.538L0,167.077L0,166.615L0,166.154L0,165.692L0,165.231L0,164.769L0,164.308L0,163.846L0,163.385L0,162.923L0,162.462L0,162L0,161.538L0,161.077L0,160.615L0,160.154L0,159.692L0,159.231L0,158.769L0,158.308L0,157.846L0,157.385L0,156.923L0,156.462L0,156L0,155.538L0,155.077L0,154.615L0,154.154L0,153.692L0,153.231L0,152.769L0,152.308L0,151.846L0,151.385L0,150.923L0,150.462L0,150L0,149.538L0,149.077L0,148.615L0,148.154L0,147.692L0,147.231L0,146.769L0,146.308L0,145.846L0,145.385L0,144.923L0,144.462L0,144L0,143.538L0,143.077L0,142.615L0,142.154L0,141.692L0,141.231L0,140.769L0,140.308L0,139.846L0,139.385L0,138.923L0,138.462L0,138L0,137.538L0,137.077L0,136.615L0,136.154L0,135.692L0,135.231L0,134.769L0,134.308L0,133.846L0,133.385L0,132.923L0,132.462L0,132L0,131.538L0,131.077L0,130.615L0,130.154L0,129.692L0,129.231L0,128.769L0,128.308L0,127.846L0,127.385L0,126.923Z" fill="#4c78a8" opacity="0.5"/></g><g class="mark-symbol role-mark child_layer_2_marks" role="graphics-object" aria-roledescription="symbol mark container"><path aria-label="value: 1" role="graphics-symbol" aria-roledescription="circle" transform="translate(120.82909716094652,184.6153846153846)" d="M2.5,0A2.5,2.5,0,1,1,-2.5,0A2.5,2.5,0,1,1,2.5,0" fill="#4c78a8" stroke-width="2" opacity="0.5"/><path aria-label="value: 1.2" role="graphics-symbol" aria-roledescription="circle" transform="translate(104.61645055130671,161.53846153846158)" d="M2.5,0A2.5,2.5,0,1,1,-2.5,0A2.5,2.5,0,1,1,2.5,0" fill="#4c78a8" stroke-width="2" opacity="0.5"/><path aria-label="value: 0.9" role="graphics-symbol" aria-roledescription="circle" transform="translate(41.35717140578344,196.15384615384616)" d="M2.5,0A2.5,2.5,0,1,1,-2.5,0A2.5,2.5,0,1,1,2.5,0" fill="#4c78a8" stroke-width="2" opacity="0.5"/><path aria-label="value: 1.1" role="graphics-symbol" aria-roledescription="circle" transform="translate(11.046890679930625,173.07692307692307)" d="M2.5,0A2.5,2.5,0,1,1,-2.5,0A2.5,2.5,0,1,1,2.5,0" fill="#4c78a8" stroke-width="2" opacity="0.5"/><path aria-label="value: 1.3" role="graphics-symbol" aria-roledescription="circle" transform="translate(58.3640102566141,150)" d="M2.5,0A2.5,2.5,0,1,1,-2.5,0A2.5,2.5,0,1,1,2.5,0" fill="#4c78a8" stroke-width="2" opacity="0.5"/><path aria-label="value: 0.8" role="graphics-symbol" aria-roledescription="circle" transform="translate(38.42515077195268,207.69230769230768)" d="M2.5,0A2.5,2.5,0,1,1,-2.5,0A2.5,2.5,0,1,1,2.5,0" fill="#4c78a8" stroke-width="2" opacity="0.5"/><path aria-label="value: 1.4" role="graphics-symbol" aria-roledescription="circle" transform="translate(109.46223544401987,138.46153846153848)" d="M2.5,0A2.5,2.5,0,1,1,-2.5,0A2.5,2.5,0,1,1,2.5,0" fill="#4c78a8" stroke-width="2" opacity="0.5"/><path aria-label="value: 1" role="graphics-symbol" aria-roledescription="circle" transform="translate(19.371136139798896,184.6153846153846)" d="M2.5,0A2.5,2.5,0,1,1,-2.5,0A2.5,2.5,0,1,1,2.5,0" fill="#4c78a8" stroke-width="2" opacity="0.5"/><path aria-label="value: 0.7" role="graphics-symbol" aria-roledescription="circle" transform="translate(51.861928903566714,219.23076923076925)" d="M2.5,0A2.5,2.5,0,1,1,-2.5,0A2.5,2.5,0,1,1,2.5,0" fill="#4c78a8" stroke-width="2" opacity="0.5"/><path aria-label="value: 1.5" role="graphics-symbol" aria-roledescription="circle" transform="translate(71.88413239781835,126.92307692307693)" d="M2.5,0A2.5,2.5,0,1,1,-2.5,0A2.5,2.5,0,1,1,2.5,0" fill="#4c78a8" stroke-width="2" opacity="0.5"/><path aria-label="value: 1.1" role="graphics-symbol" aria-roledescription="circle" transform="translate(132.77116597412535,173.07692307692307)" d="M2.5,0A2.5,2.5,0,1,1,-2.5,0A2.5,2.5,0,1,1,2.5,0" fill="#4c78a8" stroke-width="2" opacity="0.5"/><path aria-label="value: 0.95" role="graphics-symbol" aria-roledescription="circle" transform="translate(57.12878546576067,190.3846153846154)" d="M2.5,0A2.5,2.5,0,1,1,-2.5,0A2.5,2.5,0,1,1,2.5,0" fill="#4c78a8" stroke-width="2" opacity="0.5"/><path aria-label="value: 1.25" role="graphics-symbol" aria-roledescription="circle" transform="translate(15.344595824944465,155.76923076923077)" d="M2.5,0A2.5,2.5,0,1,1,-2.5,0A2.5,2.5,0,1,1,2.5,0" fill="#4c78a8" stroke-width="2" opacity="0.5"/><path aria-label="value: 1.05" role="graphics-symbol" aria-roledescription="circle" transform="translate(104.21328827947947,178.84615384615384)" d="M2.5,0A2.5,2.5,0,1,1,-2.5,0A2.5,2.5,0,1,1,2.5,0" fill="#4c78a8" stroke-width="2" opacity="0.5"/><path aria-label="value: 0.85" role="graphics-symbol" aria-roledescription="circle" transform="translate(78.44418687662467,201.92307692307693)" d="M2.5,0A2.5,2.5,0,1,1,-2.5,0A2.5,2.5,0,1,1,2.5,0" fill="#4c78a8" stroke-width="2" opacity="0.5"/><path aria-label="value: 1.15" role="graphics-symbol" aria-roledescription="circle" transform="translate(9.469939005457599,167.30769230769232)" d="M2.5,0A2.5,2.5,0,1,1,-2.5,0A2.5,2.5,0,1,1,2.5,0" fill="#4c78a8" stroke-width="2" opacity="0.5"/><path aria-label="value: 1.35" role="graphics-symbol" aria-roledescription="circle" transform="translate(133.077422994045,144.23076923076923)" d="M2.5,0A2.5,2.5,0,1,1,-2.5,0A2.5,2.5,0,1,1,2.5,0" fill="#4c78a8" stroke-width="2" opacity="0.5"/><path aria-label="value: 0.75" role="graphics-symbol" aria-roledescription="circle" transform="translate(146.77227675705993,213.46153846153848)" d="M2.5,0A2.5,2.5,0,1,1,-2.5,0A2.5,2.5,0,1,1,2.5,0" fill="#4c78a8" stroke-width="2" opacity="0.5"/><path aria-label="value: 1.45" role="graphics-symbol" aria-roledescription="circle" transform="translate(114.41573174936055,132.69230769230768)" d="M2.5,0A2.5,2.5,0,1,1,-2.5,0A2.5,2.5,0,1,1,2.5,0" fill="#4c78a8" stroke-width="2" opacity="0.5"/><path aria-label="value: 1.02" role="graphics-symbol" aria-roledescription="circle" transform="translate(131.65611570742175,182.30769230769232)" d="M2.5,0A2.5,2.5,0,1,1,-2.5,0A2.5,2.5,0,1,1,2.5,0" fill="#4c78a8" stroke-width="2" opacity="0.5"/></g></g><path class="foreground" aria-hidden="true" d="" display="none"/></g><g transform="translate(173,0)"><path class="background" aria-hidden="true" d="M0.5,0.5h150v300h-150Z" stroke="#ddd"/><g><g class="mark-group role-axis" aria-hidden="true"><g transform="translate(0.5,0.5)"><path class="background" aria-hidden="true" d="M0,0h0v0h0Z" pointer-events="none"/><g><g class="mark-rule role-axis-grid" pointer-events="none"><line transform="translate(0,300)" x2="150" y2="0" stroke="#ddd" stroke-width="1" opacity="1"/><line transform="translate(0,242)" x2="150" y2="0" stroke="#ddd" stroke-width="1" opacity="1"/><line transform="translate(0,185)" x2="150" y2="0" stroke="#ddd" stroke-width="1" opacity="1"/><line transform="translate(0,127)" x2="150" y2="0" stroke="#ddd" stroke-width="1" opacity="1"/><line transform="translate(0,69)" x2="150" y2="0" stroke="#ddd" stroke-width="1" opacity="1"/><line transform="translate(0,12)" x2="150" y2="0" stroke="#ddd" stroke-width="1" opacity="1"/></g></g><path class="foreground" aria-hidden="true" d="" pointer-events="none" display="none"/></g></g><g class="mark-symbol role-mark child_layer_0_layer_0_layer_0_marks" role="graphics-symbol" aria-roledescription="symbol mark container"/><g class="mark-rule role-mark child_layer_0_layer_0_layer_1_layer_0_marks" aria-hidden="true"><line transform="translate(75,115.38461538461537)" x2="0" y2="-33.173076923076906" stroke="black"/></g><g class="mark-rule role-mark child_layer_0_layer_0_layer_1_layer_1_marks" aria-hidden="true"><line transform="translate(75,27.40384615384619)" x2="0" y2="-27.40384615384619" stroke="black"/></g><g class="mark-rect role-mark child_layer_0_layer_0_layer_1_layer_2_marks" aria-hidden="true"><path d="M0,114.88461538461537h150v1h-150Z" fill="black" opacity="1"/></g><g class="mark-rect role-mark child_layer_0_layer_0_layer_1_layer_3_marks" aria-hidden="true"><path d="M0,-0.5h150v1h-150Z" fill="black" opacity="1"/></g><g class="mark-rect role-mark child_layer_0_layer_1_layer_0_marks" role="graphics-object" aria-roledescription="rect mark container"><path aria-label="group: B; value: 1.8875; upper_box_value: 2.3625; Max of value: 2.6; Q3 of value: 2.3625; Median of value: 2.075; Q1 of value: 1.8875; Min of value: 1.6" role="graphics-symbol" aria-roledescription="box" d="M65,27.40384615384619h20v54.80769230769228h-20Z" fill="#4c78a8"/></g><g class="mark-rect role-mark child_layer_0_layer_1_layer_1_marks" aria-hidden="true"><path d="M65,60.07692307692306h20v1h-20Z" fill="black" opacity="0.7"/></g><g class="mark-area role-mark child_layer_1_marks" role="graphics-object" aria-roledescription="area mark container"><path aria-label="density: 0.54298490246; value: 2.6" role="graphics-symbol" aria-roledescription="area mark" d="M74.043,0L75.482,0.577L76.908,1.154L78.321,1.731L79.719,2.308L81.101,2.885L82.466,3.462L83.812,4.038L85.139,4.615L86.445,5.192L87.731,5.769L88.994,6.346L90.234,6.923L91.449,7.5L92.641,8.077L93.807,8.654L94.947,9.231L96.061,9.808L97.148,10.385L98.208,10.962L99.241,11.538L100.246,12.115L101.224,12.692L102.173,13.269L103.095,13.846L103.989,14.423L104.856,15L105.696,15.577L106.508,16.154L107.294,16.731L108.054,17.308L108.789,17.885L109.498,18.462L110.184,19.038L110.845,19.615L111.484,20.192L112.101,20.769L112.697,21.346L113.272,21.923L113.829,22.5L114.367,23.077L114.887,23.654L115.392,24.231L115.881,24.808L116.356,25.385L116.819,25.962L117.269,26.538L117.709,27.115L118.139,27.692L118.561,28.269L118.975,28.846L119.383,29.423L119.786,30L120.185,30.577L120.58,31.154L120.974,31.731L121.366,32.308L121.758,32.885L122.15,33.462L122.544,34.038L122.94,34.615L123.339,35.192L123.741,35.769L124.147,36.346L124.559,36.923L124.975,37.5L125.396,38.077L125.824,38.654L126.257,39.231L126.697,39.808L127.142,40.385L127.595,40.962L128.053,41.538L128.518,42.115L128.989,42.692L129.465,43.269L129.947,43.846L130.434,44.423L130.925,45L131.421,45.577L131.919,46.154L132.421,46.731L132.924,47.308L133.429,47.885L133.934,48.462L134.439,49.038L134.943,49.615L135.444,50.192L135.942,50.769L136.435,51.346L136.924,51.923L137.405,52.5L137.88,53.077L138.346,53.654L138.802,54.231L139.247,54.808L139.68,55.385L140.101,55.962L140.507,56.538L140.898,57.115L141.273,57.692L141.63,58.269L141.969,58.846L142.288,59.423L142.587,60L142.865,60.577L143.121,61.154L143.353,61.731L143.562,62.308L143.746,62.885L143.905,63.462L144.037,64.038L144.143,64.615L144.221,65.192L144.272,65.769L144.294,66.346L144.288,66.923L144.252,67.5L144.187,68.077L144.092,68.654L143.968,69.231L143.813,69.808L143.628,70.385L143.412,70.962L143.166,71.538L142.89,72.115L142.583,72.692L142.246,73.269L141.879,73.846L141.482,74.423L141.055,75L140.599,75.577L140.113,76.154L139.599,76.731L139.055,77.308L138.483,77.885L137.884,78.462L137.256,79.038L136.601,79.615L135.92,80.192L135.212,80.769L134.478,81.346L133.718,81.923L132.933,82.5L132.123,83.077L131.288,83.654L130.43,84.231L129.549,84.808L128.644,85.385L127.716,85.962L126.767,86.538L125.795,87.115L124.802,87.692L123.788,88.269L122.754,88.846L121.699,89.423L120.625,90L119.532,90.577L118.419,91.154L117.288,91.731L116.139,92.308L114.972,92.885L113.788,93.462L112.587,94.038L111.37,94.615L110.137,95.192L108.887,95.769L107.623,96.346L106.344,96.923L105.05,97.5L103.743,98.077L102.422,98.654L101.088,99.231L99.742,99.808L98.384,100.385L97.014,100.962L95.634,101.538L94.243,102.115L92.842,102.692L91.432,103.269L90.013,103.846L88.586,104.423L87.151,105L85.71,105.577L84.263,106.154L82.81,106.731L81.353,107.308L79.891,107.885L78.426,108.462L76.958,109.038L75.489,109.615L74.018,110.192L72.547,110.769L71.076,111.346L69.607,111.923L68.14,112.5L66.675,113.077L65.214,113.654L63.758,114.231L62.307,114.808L60.861,115.385L0,115.385L0,114.808L0,114.231L0,113.654L0,113.077L0,112.5L0,111.923L0,111.346L0,110.769L0,110.192L0,109.615L0,109.038L0,108.462L0,107.885L0,107.308L0,106.731L0,106.154L0,105.577L0,105L0,104.423L0,103.846L0,103.269L0,102.692L0,102.115L0,101.538L0,100.962L0,100.385L0,99.808L0,99.231L0,98.654L0,98.077L0,97.5L0,96.923L0,96.346L0,95.769L0,95.192L0,94.615L0,94.038L0,93.462L0,92.885L0,92.308L0,91.731L0,91.154L0,90.577L0,90L0,89.423L0,88.846L0,88.269L0,87.692L0,87.115L0,86.538L0,85.962L0,85.385L0,84.808L0,84.231L0,83.654L0,83.077L0,82.5L0,81.923L0,81.346L0,80.769L0,80.192L0,79.615L0,79.038L0,78.462L0,77.885L0,77.308L0,76.731L0,76.154L0,75.577L0,75L0,74.423L0,73.846L0,73.269L0,72.692L0,72.115L0,71.538L0,70.962L0,70.385L0,69.808L0,69.231L0,68.654L0,68.077L0,67.5L0,66.923L0,66.346L0,65.769L0,65.192L0,64.615L0,64.038L0,63.462L0,62.885L0,62.308L0,61.731L0,61.154L0,60.577L0,60L0,59.423L0,58.846L0,58.269L0,57.692L0,57.115L0,56.538L0,55.962L0,55.385L0,54.808L0,54.231L0,53.654L0,53.077L0,52.5L0,51.923L0,51.346L0,50.769L0,50.192L0,49.615L0,49.038L0,48.462L0,47.885L0,47.308L0,46.731L0,46.154L0,45.577L0,45L0,44.423L0,43.846L0,43.269L0,42.692L0,42.115L0,41.538L0,40.962L0,40.385L0,39.808L0,39.231L0,38.654L0,38.077L0,37.5L0,36.923L0,36.346L0,35.769L0,35.192L0,34.615L0,34.038L0,33.462L0,32.885L0,32.308L0,31.731L0,31.154L0,30.577L0,30L0,29.423L0,28.846L0,28.269L0,27.692L0,27.115L0,26.538L0,25.962L0,25.385L0,24.808L0,24.231L0,23.654L0,23.077L0,22.5L0,21.923L0,21.346L0,20.769L0,20.192L0,19.615L0,19.038L0,18.462L0,17.885L0,17.308L0,16.731L0,16.154L0,15.577L0,15L0,14.423L0,13.846L0,13.269L0,12.692L0,12.115L0,11.538L0,10.962L0,10.385L0,9.808L0,9.231L0,8.654L0,8.077L0,7.5L0,6.923L0,6.346L0,5.769L0,5.192L0,4.615L0,4.038L0,3.462L0,2.885L0,2.308L0,1.731L0,1.154L0,0.577L0,0Z" fill="#4c78a8" opacity="0.5"/></g><g class="mark-symbol role-mark child_layer_2_marks" role="graphics-object" aria-roledescription="symbol mark container"><path aria-label="value: 2" role="graphics-symbol" aria-roledescription="circle" transform="translate(46.522135397899895,69.23076923076925)" d="M2.5,0A2.5,2.5,0,1,1,-2.5,0A2.5,2.5,0,1,1,2.5,0" fill="#4c78a8" stroke-width="2" opacity="0.5"/><path aria-label="value: 2.3" role="graphics-symbol" aria-roledescription="circle" transform="translate(109.47476223901931,34.615384615384656)" d="M2.5,0A2.5,2.5,0,1,1,-2.5,0A2.5,2.5,0,1,1,2.5,0" fill="#4c78a8" stroke-width="2" opacity="0.5"/><path aria-label="value: 1.8" role="graphics-symbol" aria-roledescription="circle" transform="translate(134.825743195199,92.3076923076923)" d="M2.5,0A2.5,2.5,0,1,1,-2.5,0A2.5,2.5,0,1,1,2.5,0" fill="#4c78a8" stroke-width="2" opacity="0.5"/><path aria-label="value: 2.1" role="graphics-symbol" aria-roledescription="circle" transform="translate(102.5975897873162,57.692307692307686)" d="M2.5,0A2.5,2.5,0,1,1,-2.5,0A2.5,2.5,0,1,1,2.5,0" fill="#4c78a8" stroke-width="2" opacity="0.5"/><path aria-label="value: 2.5" role="graphics-symbol" aria-roledescription="circle" transform="translate(70.821407317907,11.538461538461565)" d="M2.5,0A2.5,2.5,0,1,1,-2.5,0A2.5,2.5,0,1,1,2.5,0" fill="#4c78a8" stroke-width="2" opacity="0.5"/><path aria-label="value: 1.7" role="graphics-symbol" aria-roledescription="circle" transform="translate(15.105181210254877,103.84615384615384)" d="M2.5,0A2.5,2.5,0,1,1,-2.5,0A2.5,2.5,0,1,1,2.5,0" fill="#4c78a8" stroke-width="2" opacity="0.5"/><path aria-label="value: 2.4" role="graphics-symbol" aria-roledescription="circle" transform="translate(65.12577531806757,23.076923076923094)" d="M2.5,0A2.5,2.5,0,1,1,-2.5,0A2.5,2.5,0,1,1,2.5,0" fill="#4c78a8" stroke-width="2" opacity="0.5"/><path aria-label="value: 2" role="graphics-symbol" aria-roledescription="circle" transform="translate(91.63304601657025,69.23076923076925)" d="M2.5,0A2.5,2.5,0,1,1,-2.5,0A2.5,2.5,0,1,1,2.5,0" fill="#4c78a8" stroke-width="2" opacity="0.5"/><path aria-label="value: 1.6" role="graphics-symbol" aria-roledescription="circle" transform="translate(136.95165798568473,115.38461538461537)" d="M2.5,0A2.5,2.5,0,1,1,-2.5,0A2.5,2.5,0,1,1,2.5,0" fill="#4c78a8" stroke-width="2" opacity="0.5"/><path aria-label="value: 2.6" role="graphics-symbol" aria-roledescription="circle" transform="translate(144.99095516561383,0)" d="M2.5,0A2.5,2.5,0,1,1,-2.5,0A2.5,2.5,0,1,1,2.5,0" fill="#4c78a8" stroke-width="2" opacity="0.5"/><path aria-label="value: 2.2" role="graphics-symbol" aria-roledescription="circle" transform="translate(71.55146648290754,46.15384615384615)" d="M2.5,0A2.5,2.5,0,1,1,-2.5,0A2.5,2.5,0,1,1,2.5,0" fill="#4c78a8" stroke-width="2" opacity="0.5"/><path aria-label="value: 1.9" role="graphics-symbol" aria-roledescription="circle" transform="translate(129.796489165746,80.76923076923079)" d="M2.5,0A2.5,2.5,0,1,1,-2.5,0A2.5,2.5,0,1,1,2.5,0" fill="#4c78a8" stroke-width="2" opacity="0.5"/><path aria-label="value: 2.35" role="graphics-symbol" aria-roledescription="circle" transform="translate(39.07384655879391,28.846153846153843)" d="M2.5,0A2.5,2.5,0,1,1,-2.5,0A2.5,2.5,0,1,1,2.5,0" fill="#4c78a8" stroke-width="2" opacity="0.5"/><path aria-label="value: 2.15" role="graphics-symbol" aria-roledescription="circle" transform="translate(120.75417405195336,51.92307692307694)" d="M2.5,0A2.5,2.5,0,1,1,-2.5,0A2.5,2.5,0,1,1,2.5,0" fill="#4c78a8" stroke-width="2" opacity="0.5"/><path aria-label="value: 1.85" role="graphics-symbol" aria-roledescription="circle" transform="translate(82.30489557533839,86.53846153846153)" d="M2.5,0A2.5,2.5,0,1,1,-2.5,0A2.5,2.5,0,1,1,2.5,0" fill="#4c78a8" stroke-width="2" opacity="0.5"/><path aria-label="value: 2.05" role="graphics-symbol" aria-roledescription="circle" transform="translate(2.106255024602838,63.4615384615385)" d="M2.5,0A2.5,2.5,0,1,1,-2.5,0A2.5,2.5,0,1,1,2.5,0" fill="#4c78a8" stroke-width="2" opacity="0.5"/><path aria-label="value: 2.45" role="graphics-symbol" aria-roledescription="circle" transform="translate(107.95570296059311,17.307692307692314)" d="M2.5,0A2.5,2.5,0,1,1,-2.5,0A2.5,2.5,0,1,1,2.5,0" fill="#4c78a8" stroke-width="2" opacity="0.5"/><path aria-label="value: 1.75" role="graphics-symbol" aria-roledescription="circle" transform="translate(59.82353133364031,98.0769230769231)" d="M2.5,0A2.5,2.5,0,1,1,-2.5,0A2.5,2.5,0,1,1,2.5,0" fill="#4c78a8" stroke-width="2" opacity="0.5"/><path aria-label="value: 2.55" role="graphics-symbol" aria-roledescription="circle" transform="translate(123.72674657223496,5.769230769230815)" d="M2.5,0A2.5,2.5,0,1,1,-2.5,0A2.5,2.5,0,1,1,2.5,0" fill="#4c78a8" stroke-width="2" opacity="0.5"/><path aria-label="value: 2.02" role="graphics-symbol" aria-roledescription="circle" transform="translate(100.22298018477763,66.92307692307692)" d="M2.5,0A2.5,2.5,0,1,1,-2.5,0A2.5,2.5,0,1,1,2.5,0" fill="#4c78a8" stroke-width="2" opacity="0.5"/></g></g><path class="foreground" aria-hidden="true" d="" display="none"/></g></g></g><path class="foreground" aria-hidden="true" d="" display="none"/></g></g></g></svg>