<svg xmlns="http://www.w3.org/2000/svg" xmlns:xlink="http://www.w3.org/1999/xlink" version="1.1" class="marks" width="793" height="432" viewBox="0 0 793 432"><g fill="none" stroke-miterlimit="10" transform="translate(21,11)"><g class="mark-group role-frame root" role="graphics-object" aria-roledescription="group mark container"><g transform="translate(0,0)"><path class="background" aria-hidden="true" d="M0,0h0v0h0Z"/><g><g class="mark-group role-scope concat_0_group" role="graphics-object" aria-roledescription="group mark container"><g transform="translate(0,0)"><path class="background" aria-hidden="true" d="M0,0h0v0h0Z"/><g><g class="mark-group role-scope concat_0_concat_0_group" role="graphics-object" aria-roledescription="group mark container"><g transform="translate(0,0)"><path class="background" aria-hidden="true" d="M0,0h120v300h-120Z" stroke-width="0"/><g><g class="mark-symbol role-mark concat_0_concat_0_marks" role="graphics-object" aria-roledescription="symbol mark container" pointer-events="none"><path aria-label="x: 0" role="graphics-symbol" aria-roledescription="point" transform="translate(60,150)" d="M0,0" stroke="#4c78a8" stroke-width="2" opacity="0"/></g></g><path class="foreground" aria-hidden="true" d="" display="none"/></g></g><g class="mark-group role-scope concat_0_concat_1_group" role="graphics-object" aria-roledescription="group mark container"><g transform="translate(0,300)"><path class="background" aria-hidden="true" d="M0,0h120v80h-120Z" stroke-width="0"/><g><g class="mark-group role-axis" aria-hidden="true"><g transform="translate(0.5,80.5)"><path class="background" aria-hidden="true" d="M0,0h0v0h0Z" pointer-events="none"/><g><g class="mark-rule role-axis-grid" pointer-events="none"><line transform="translate(108,-80)" x2="0" y2="80" stroke="gray" stroke-opacity="0.5" stroke-width="1" stroke-dasharray="3,3" opacity="1"/><line transform="translate(60,-80)" x2="0" y2="80" stroke="gray" stroke-opacity="0.5" stroke-width="1" stroke-dasharray="3,3" opacity="1"/><line transform="translate(12,-80)" x2="0" y2="80" stroke="gray" stroke-opacity="0.5" stroke-width="1" stroke-dasharray="3,3" opacity="1"/></g></g><path class="foreground" aria-hidden="true" d="" pointer-events="none" display="none"/></g></g><g class="mark-group role-axis" role="graphics-symbol" aria-roledescription="axis" aria-label="X-axis titled 'Set Size' for a linear scale with values from 4 to 9"><g transform="translate(0.5,80.5)"><path class="background" aria-hidden="true" d="M0,0h0v0h0Z" pointer-events="none"/><g><g class="mark-rule role-axis-tick" pointer-events="none"><line transform="translate(108,0)" x2="0" y2="5" stroke="#888" stroke-width="1" opacity="1"/><line transform="translate(60,0)" x2="0" y2="5" stroke="#888" stroke-width="1" opacity="1"/><line transform="translate(12,0)" x2="0" y2="5" stroke="#888" stroke-width="1" opacity="1"/></g><g class="mark-text role-axis-label" pointer-events="none"><text text-anchor="middle" transform="translate(108,16)" font-family="sans-serif" font-size="12px" fill="#000" opacity="1">4</text><text text-anchor="middle" transform="translate(60,16)" font-family="sans-serif" font-size="12px" fill="#000" opacity="1">6</text><text text-anchor="middle" transform="translate(11.999999999999996,16)" font-family="sans-serif" font-size="12px" fill="#000" opacity="1">8</text></g><g class="mark-rule role-axis-domain" pointer-events="none"><line transform="translate(120,0)" x2="-120" y2="0" stroke="#888" stroke-width="1" opacity="1"/></g><g class="mark-text role-axis-title" pointer-events="none"><text text-anchor="middle" transform="translate(60,33)" font-family="sans-serif" font-size="14px" font-weight="bold" fill="#000" opacity="1">Set Size</text></g></g><path class="foreground" aria-hidden="true" d="" pointer-events="none" display="none"/></g></g><g class="mark-group role-axis" role="graphics-symbol" aria-roledescription="axis" aria-label="Y-axis for a linear scale with values from −0.5 to 2.5"><g transform="translate(0.5,0.5)"><path class="background" aria-hidden="true" d="M0,0h0v0h0Z" pointer-events="none"/><g><g class="mark-rule role-axis-tick" pointer-events="none"><line transform="translate(0,67)" x2="-5" y2="0" stroke="#888" stroke-width="1" opacity="1"/><line transform="translate(0,40)" x2="-5" y2="0" stroke="#888" stroke-width="1" opacity="1"/><line transform="translate(0,13)" x2="-5" y2="0" stroke="#888" stroke-width="1" opacity="1"/></g><g class="mark-text role-axis-label" pointer-events="none"><text text-anchor="end" transform="translate(-7,70.66666666666667)" font-family="sans-serif" font-size="12px" fill="#000" opacity="1">A</text><text text-anchor="end" transform="translate(-7,44)" font-family="sans-serif" font-size="12px" fill="#000" opacity="1">B</text><text text-anchor="end" transform="translate(-7,17.33333333333333)" font-family="sans-serif" font-size="12px" fill="#000" opacity="1">C</text></g><g class="mark-rule role-axis-domain" pointer-events="none"><line transform="translate(0,80)" x2="0" y2="-80" stroke="#888" stroke-width="1" opacity="1"/></g></g><path class="foreground" aria-hidden="true" d="" pointer-events="none" display="none"/></g></g><g class="mark-rect role-mark concat_0_concat_1_marks" role="graphics-object" aria-roledescription="rect mark container"><path aria-label="Set Size: 7; Set: A; Size: 7" role="graphics-symbol" aria-roledescription="bar" d="M33.50000000000001,66.66666666666667h5v0h-5Z" fill="#4c78a8"/><path aria-label="Set Size: 8; Set: B; Size: 8" role="graphics-symbol" aria-roledescription="bar" d="M9.499999999999996,40h5v26.66666666666667h-5Z" fill="#4c78a8"/><path aria-label="Set Size: 4; Set: C; Size: 4" role="graphics-symbol" aria-roledescription="bar" d="M105.5,13.33333333333333h5v53.33333333333334h-5Z" fill="#4c78a8"/></g></g><path class="foreground" aria-hidden="true" d="" display="none"/></g></g></g><path class="foreground" aria-hidden="true" d="" display="none"/></g></g><g class="mark-group role-scope concat_1_group" role="graphics-object" aria-roledescription="group mark container"><g transform="translate(167,0)"><path class="background" aria-hidden="true" d="M0,0h0v0h0Z"/><g><g class="mark-group role-scope concat_1_concat_0_group" role="graphics-object" aria-roledescription="group mark container"><g transform="translate(0,0)"><path class="background" aria-hidden="true" d="M0,0h600v300h-600Z" stroke-width="0"/><g><g class="mark-group role-axis" aria-hidden="true"><g transform="translate(0.5,0.5)"><path class="background" aria-hidden="true" d="M0,0h0v0h0Z" pointer-events="none"/><g><g class="mark-rule role-axis-grid" pointer-events="none"><line transform="translate(0,300)" x2="600" y2="0" stroke="gray" stroke-opacity="0.5" stroke-width="1" stroke-dasharray="3,3" opacity="1"/><line transform="translate(0,250)" x2="600" y2="0" stroke="gray" stroke-opacity="0.5" stroke-width="1" stroke-dasharray="3,3" opacity="1"/><line transform="translate(0,200)" x2="600" y2="0" stroke="gray" stroke-opacity="0.5" stroke-width="1" stroke-dasharray="3,3" opacity="1"/><line transform="translate(0,150)" x2="600" y2="0" stroke="gray" stroke-opacity="0.5" stroke-width="1" stroke-dasharray="3,3" opacity="1"/><line transform="translate(0,100)" x2="600" y2="0" stroke="gray" stroke-opacity="0.5" stroke-width="1" stroke-dasharray="3,3" opacity="1"/><line transform="translate(0,50)" x2="600" y2="0" stroke="gray" stroke-opacity="0.5" stroke-width="1" stroke-dasharray="3,3" opacity="1"/><line transform="translate(0,0)" x2="600" y2="0" stroke="gray" stroke-opacity="0.5" stroke-width="1" stroke-dasharray="3,3" opacity="1"/></g></g><path class="foreground" aria-hidden="true" d="" pointer-events="none" display="none"/></g></g><g class="mark-group role-axis" role="graphics-symbol" aria-roledescription="axis" aria-label="Y-axis titled 'Intersection Size' for a linear scale with values from 0.0 to 3.0"><g transform="translate(0.5,0.5)"><path class="background" aria-hidden="true" d="M0,0h0v0h0Z" pointer-events="none"/><g><g class="mark-rule role-axis-tick" pointer-events="none"><line transform="translate(0,300)" x2="-5" y2="0" stroke="#888" stroke-width="1" opacity="1"/><line transform="translate(0,250)" x2="-5" y2="0" stroke="#888" stroke-width="1" opacity="1"/><line transform="translate(0,200)" x2="-5" y2="0" stroke="#888" stroke-width="1" opacity="1"/><line transform="translate(0,150)" x2="-5" y2="0" stroke="#888" stroke-width="1" opacity="1"/><line transform="translate(0,100)" x2="-5" y2="0" stroke="#888" stroke-width="1" opacity="1"/><line transform="translate(0,50)" x2="-5" y2="0" stroke="#888" stroke-width="1" opacity="1"/><line transform="translate(0,0)" x2="-5" y2="0" stroke="#888" stroke-width="1" opacity="1"/></g><g class="mark-text role-axis-label" pointer-events="none"><text text-anchor="end" transform="translate(-7,304)" font-family="sans-serif" font-size="12px" fill="#000" opacity="1">0.0</text><text text-anchor="end" transform="translate(-7,254)" font-family="sans-serif" font-size="12px" fill="#000" opacity="1">0.5</text><text text-anchor="end" transform="translate(-7,204.00000000000003)" font-family="sans-serif" font-size="12px" fill="#000" opacity="1">1.0</text><text text-anchor="end" transform="translate(-7,154)" font-family="sans-serif" font-size="12px" fill="#000" opacity="1">1.5</text><text text-anchor="end" transform="translate(-7,104.00000000000001)" font-family="sans-serif" font-size="12px" fill="#000" opacity="1">2.0</text><text text-anchor="end" transform="translate(-7,53.999999999999986)" font-family="sans-serif" font-size="12px" fill="#000" opacity="1">2.5</text><text text-anchor="end" transform="translate(-7,4)" font-family="sans-serif" font-size="12px" fill="#000" opacity="1">3.0</text></g><g class="mark-rule role-axis-domain" pointer-events="none"><line transform="translate(0,300)" x2="0" y2="-300" stroke="#888" stroke-width="1" opacity="1"/></g><g class="mark-text role-axis-title" pointer-events="none"><text text-anchor="middle" transform="translate(-27.681640625,150) rotate(-90) translate(0,-3)" font-family="sans-serif" font-size="14px" font-weight="bold" fill="#000" opacity="1">Intersection Size</text></g></g><path class="foreground" aria-hidden="true" d="" pointer-events="none" display="none"/></g></g><g class="mark-rect role-mark concat_1_concat_0_marks" role="graphics-object" aria-roledescription="rect mark container"><path aria-label="Intersection Size: 2; Size: 2; Degree: 1" role="graphics-symbol" aria-roledescription="bar" d="M6,100.00000000000001h108v200h-108Z" fill="#ddd"/><path aria-label="Intersection Size: 2; Size: 2; Degree: 1" role="graphics-symbol" aria-roledescription="bar" d="M246,100.00000000000001h108v200h-108Z" fill="#ddd"/><path aria-label="Intersection Size: 3; Size: 3; Degree: 1" role="graphics-symbol" aria-roledescription="bar" d="M126,0h108v300h-108Z" fill="#ddd"/><path aria-label="Intersection Size: 3; Size: 3; Degree: 2" role="graphics-symbol" aria-roledescription="bar" d="M366,0h108v300h-108Z" fill="#ddd"/><path aria-label="Intersection Size: 2; Size: 2; Degree: 3" role="graphics-symbol" aria-roledescription="bar" d="M486,100.00000000000001h108v200h-108Z" fill="#ddd"/></g></g><path class="foreground" aria-hidden="true" d="" display="none"/></g></g><g class="mark-group role-scope concat_1_concat_1_group" role="graphics-object" aria-roledescription="group mark container"><g transform="translate(0,306)"><path class="background" aria-hidden="true" d="M0,0h600v80h-600Z" stroke-width="0"/><g><g class="mark-group role-axis" role="graphics-symbol" aria-roledescription="axis" aria-label="Y-axis for a linear scale with values from −0.5 to 2.5"><g transform="translate(0.5,0.5)"><path class="background" aria-hidden="true" d="M0,0h0v0h0Z" pointer-events="none"/><g><g class="mark-rule role-axis-tick" pointer-events="none"><line transform="translate(0,67)" x2="-5" y2="0" stroke="#888" stroke-width="1" opacity="1"/><line transform="translate(0,13)" x2="-5" y2="0" stroke="#888" stroke-width="1" opacity="1"/></g><g class="mark-text role-axis-label" pointer-events="none"><text text-anchor="end" transform="translate(-7,70.66666666666667)" font-family="sans-serif" font-size="12px" fill="#000" opacity="1">A</text><text text-anchor="end" transform="translate(-7,17.33333333333333)" font-family="sans-serif" font-size="12px" fill="#000" opacity="1">C</text></g><g class="mark-rule role-axis-domain" pointer-events="none"><line transform="translate(0,80)" x2="0" y2="-80" stroke="#888" stroke-width="1" opacity="1"/></g></g><path class="foreground" aria-hidden="true" d="" pointer-events="none" display="none"/></g></g><g class="mark-symbol role-mark view_4d1fe3739c9b080a_0_marks" role="graphics-symbol" aria-roledescription="symbol mark container"><path transform="translate(60,66.66666666666667)" d="M4.472,0A4.472,4.472,0,1,1,-4.472,0A4.472,4.472,0,1,1,4.472,0" fill="#e0e0e0" stroke-width="2" opacity="0.7"/><path transform="translate(300,66.66666666666667)" d="M4.472,0A4.472,4.472,0,1,1,-4.472,0A4.472,4.472,0,1,1,4.472,0" fill="#e0e0e0" stroke-width="2" opacity="0.7"/><path transform="translate(180,66.66666666666667)" d="M4.472,0A4.472,4.472,0,1,1,-4.472,0A4.472,4.472,0,1,1,4.472,0" fill="#e0e0e0" stroke-width="2" opacity="0.7"/><path transform="translate(420,66.66666666666667)" d="M4.472,0A4.472,4.472,0,1,1,-4.472,0A4.472,4.472,0,1,1,4.472,0" fill="#e0e0e0" stroke-width="2" opacity="0.7"/><path transform="translate(540,66.66666666666667)" d="M4.472,0A4.472,4.472,0,1,1,-4.472,0A4.472,4.472,0,1,1,4.472,0" fill="#e0e0e0" stroke-width="2" opacity="0.7"/><path transform="translate(60,40)" d="M4.472,0A4.472,4.472,0,1,1,-4.472,0A4.472,4.472,0,1,1,4.472,0" fill="#e0e0e0" stroke-width="2" opacity="0.7"/><path transform="translate(300,40)" d="M4.472,0A4.472,4.472,0,1,1,-4.472,0A4.472,4.472,0,1,1,4.472,0" fill="#e0e0e0" stroke-width="2" opacity="0.7"/><path transform="translate(180,40)" d="M4.472,0A4.472,4.472,0,1,1,-4.472,0A4.472,4.472,0,1,1,4.472,0" fill="#e0e0e0" stroke-width="2" opacity="0.7"/><path transform="translate(420,40)" d="M4.472,0A4.472,4.472,0,1,1,-4.472,0A4.472,4.472,0,1,1,4.472,0" fill="#e0e0e0" stroke-width="2" opacity="0.7"/><path transform="translate(540,40)" d="M4.472,0A4.472,4.472,0,1,1,-4.472,0A4.472,4.472,0,1,1,4.472,0" fill="#e0e0e0" stroke-width="2" opacity="0.7"/><path transform="translate(60,13.33333333333333)" d="M4.472,0A4.472,4.472,0,1,1,-4.472,0A4.472,4.472,0,1,1,4.472,0" fill="#e0e0e0" stroke-width="2" opacity="0.7"/><path transform="translate(300,13.33333333333333)" d="M4.472,0A4.472,4.472,0,1,1,-4.472,0A4.472,4.472,0,1,1,4.472,0" fill="#e0e0e0" stroke-width="2" opacity="0.7"/><path transform="translate(180,13.33333333333333)" d="M4.472,0A4.472,4.472,0,1,1,-4.472,0A4.472,4.472,0,1,1,4.472,0" fill="#e0e0e0" stroke-width="2" opacity="0.7"/><path transform="translate(420,13.33333333333333)" d="M4.472,0A4.472,4.472,0,1,1,-4.472,0A4.472,4.472,0,1,1,4.472,0" fill="#e0e0e0" stroke-width="2" opacity="0.7"/><path transform="translate(540,13.33333333333333)" d="M4.472,0A4.472,4.472,0,1,1,-4.472,0A4.472,4.472,0,1,1,4.472,0" fill="#e0e0e0" stroke-width="2" opacity="0.7"/></g><g class="mark-rule role-mark concat_1_concat_1_layer_1_marks" role="graphics-symbol" aria-roledescription="rule mark container" pointer-events="none"><line transform="translate(540,66.66666666666667)" x2="0" y2="-53.33333333333334" stroke="#bbb" stroke-width="2"/><line transform="translate(420,66.66666666666667)" x2="0" y2="-26.66666666666667" stroke="#bbb" stroke-width="2"/></g><g class="mark-symbol role-mark concat_1_concat_1_layer_2_marks" role="graphics-object" aria-roledescription="symbol mark container"><path aria-label="Size: 2; Degree: 1" role="graphics-symbol" aria-roledescription="circle" transform="translate(300,66.66666666666667)" d="M4.472,0A4.472,4.472,0,1,1,-4.472,0A4.472,4.472,0,1,1,4.472,0" fill="#888" stroke-width="2" opacity="0.7"/><path aria-label="Size: 3; Degree: 2" role="graphics-symbol" aria-roledescription="circle" transform="translate(420,66.66666666666667)" d="M4.472,0A4.472,4.472,0,1,1,-4.472,0A4.472,4.472,0,1,1,4.472,0" fill="#888" stroke-width="2" opacity="0.7"/><path aria-label="Size: 2; Degree: 3" role="graphics-symbol" aria-roledescription="circle" transform="translate(540,66.66666666666667)" d="M4.472,0A4.472,4.472,0,1,1,-4.472,0A4.472,4.472,0,1,1,4.472,0" fill="#888" stroke-width="2" opacity="0.7"/><path aria-label="Size: 3; Degree: 1" role="graphics-symbol" aria-roledescription="circle" transform="translate(180,40)" d="M4.472,0A4.472,4.472,0,1,1,-4.472,0A4.472,4.472,0,1,1,4.472,0" fill="#888" stroke-width="2" opacity="0.7"/><path aria-label="Size: 3; Degree: 2" role="graphics-symbol" aria-roledescription="circle" transform="translate(420,40)" d="M4.472,0A4.472,4.472,0,1,1,-4.472,0A4.472,4.472,0,1,1,4.472,0" fill="#888" stroke-width="2" opacity="0.7"/><path aria-label="Size: 2; Degree: 3" role="graphics-symbol" aria-roledescription="circle" transform="translate(540,40)" d="M4.472,0A4.472,4.472,0,1,1,-4.472,0A4.472,4.472,0,1,1,4.472,0" fill="#888" stroke-width="2" opacity="0.7"/><path aria-label="Size: 2; Degree: 1" role="graphics-symbol" aria-roledescription="circle" transform="translate(60,13.33333333333333)" d="M4.472,0A4.472,4.472,0,1,1,-4.472,0A4.472,4.472,0,1,1,4.472,0" fill="#888" stroke-width="2" opacity="0.7"/><path aria-label="Size: 2; Degree: 3" role="graphics-symbol" aria-roledescription="circle" transform="translate(540,13.33333333333333)" d="M4.472,0A4.472,4.472,0,1,1,-4.472,0A4.472,4.472,0,1,1,4.472,0" fill="#888" stroke-width="2" opacity="0.7"/></g></g><path class="foreground" aria-hidden="true" d="" display="none"/></g></g></g><path class="foreground" aria-hidden="true" d="" display="none"/></g></g></g><path class="foreground" aria-hidden="true" d="" display="none"/></g></g></g></svg>