<svg xmlns="http://www.w3.org/2000/svg" xmlns:xlink="http://www.w3.org/1999/xlink" version="1.1" class="marks" width="646" height="432" viewBox="0 0 646 432"><rect width="646" height="432" fill="white"/><g fill="none" stroke-miterlimit="10" transform="translate(41,10)"><g class="mark-group role-frame root" role="graphics-object" aria-roledescription="group mark container"><g transform="translate(0,0)"><path class="background" aria-hidden="true" d="M0,0h600v400h-600Z" stroke="#ddd" stroke-width="0"/><g><g class="mark-group role-axis" aria-hidden="true"><g transform="translate(0.5,0.5)"><path class="background" aria-hidden="true" d="M0,0h0v0h0Z" pointer-events="none"/><g><g class="mark-rule role-axis-grid" pointer-events="none"><line transform="translate(0,400)" x2="600" y2="0" stroke="gray" stroke-opacity="0.5" stroke-width="1" stroke-dasharray="3,3" opacity="1"/><line transform="translate(0,360)" x2="600" y2="0" stroke="gray" stroke-opacity="0.5" stroke-width="1" stroke-dasharray="3,3" opacity="1"/><line transform="translate(0,320)" x2="600" y2="0" stroke="gray" stroke-opacity="0.5" stroke-width="1" stroke-dasharray="3,3" opacity="1"/><line transform="translate(0,280)" x2="600" y2="0" stroke="gray" stroke-opacity="0.5" stroke-width="1" stroke-dasharray="3,3" opacity="1"/><line transform="translate(0,240)" x2="600" y2="0" stroke="gray" stroke-opacity="0.5" stroke-width="1" stroke-dasharray="3,3" opacity="1"/><line transform="translate(0,200)" x2="600" y2="0" stroke="gray" stroke-opacity="0.5" stroke-width="1" stroke-dasharray="3,3" opacity="1"/><line transform="translate(0,160)" x2="600" y2="0" stroke="gray" stroke-opacity="0.5" stroke-width="1" stroke-dasharray="3,3" opacity="1"/><line transform="translate(0,120)" x2="600" y2="0" stroke="gray" stroke-opacity="0.5" stroke-width="1" stroke-dasharray="3,3" opacity="1"/><line transform="translate(0,80)" x2="600" y2="0" stroke="gray" stroke-opacity="0.5" stroke-width="1" stroke-dasharray="3,3" opacity="1"/><line transform="translate(0,40)" x2="600" y2="0" stroke="gray" stroke-opacity="0.5" stroke-width="1" stroke-dasharray="3,3" opacity="1"/><line transform="translate(0,0)" x2="600" y2="0" stroke="gray" stroke-opacity="0.5" stroke-width="1" stroke-dasharray="3,3" opacity="1"/></g></g><path class="foreground" aria-hidden="true" d="" pointer-events="none" display="none"/></g></g><g class="mark-group role-axis" role="graphics-symbol" aria-roledescription="axis" aria-label="X-axis for a discrete scale with 3 values: a, b, c"><g transform="translate(0.5,400.5)"><path class="background" aria-hidden="true" d="M0,0h0v0h0Z" pointer-events="none"/><g><g class="mark-rule role-axis-tick" pointer-events="none"><line transform="translate(100,0)" x2="0" y2="5" stroke="#888" stroke-width="1" opacity="1"/><line transform="translate(300,0)" x2="0" y2="5" stroke="#888" stroke-width="1" opacity="1"/><line transform="translate(500,0)" x2="0" y2="5" stroke="#888" stroke-width="1" opacity="1"/></g><g class="mark-text role-axis-label" pointer-events="none"><text text-anchor="middle" transform="translate(100,15)" font-family="sans-serif" font-size="10px" fill="#000" opacity="1">a</text><text text-anchor="middle" transform="translate(300,15)" font-family="sans-serif" font-size="10px" fill="#000" opacity="1">b</text><text text-anchor="middle" transform="translate(500,15)" font-family="sans-serif" font-size="10px" fill="#000" opacity="1">c</text></g><g class="mark-rule role-axis-domain" pointer-events="none"><line transform="translate(0,0)" x2="600" y2="0" stroke="#888" stroke-width="1" opacity="1"/></g></g><path class="foreground" aria-hidden="true" d="" pointer-events="none" display="none"/></g></g><g class="mark-group role-axis" role="graphics-symbol" aria-roledescription="axis" aria-label="Y-axis titled 'Normalized value' for a linear scale with values from 0.0 to 1.0"><g transform="translate(0.5,0.5)"><path class="background" aria-hidden="true" d="M0,0h0v0h0Z" pointer-events="none"/><g><g class="mark-rule role-axis-tick" pointer-events="none"><line transform="translate(0,400)" x2="-5" y2="0" stroke="#888" stroke-width="1" opacity="1"/><line transform="translate(0,360)" x2="-5" y2="0" stroke="#888" stroke-width="1" opacity="1"/><line transform="translate(0,320)" x2="-5" y2="0" stroke="#888" stroke-width="1" opacity="1"/><line transform="translate(0,280)" x2="-5" y2="0" stroke="#888" stroke-width="1" opacity="1"/><line transform="translate(0,240)" x2="-5" y2="0" stroke="#888" stroke-width="1" opacity="1"/><line transform="translate(0,200)" x2="-5" y2="0" stroke="#888" stroke-width="1" opacity="1"/><line transform="translate(0,160)" x2="-5" y2="0" stroke="#888" stroke-width="1" opacity="1"/><line transform="translate(0,120)" x2="-5" y2="0" stroke="#888" stroke-width="1" opacity="1"/><line transform="translate(0,80)" x2="-5" y2="0" stroke="#888" stroke-width="1" opacity="1"/><line transform="translate(0,40)" x2="-5" y2="0" stroke="#888" stroke-width="1" opacity="1"/><line transform="translate(0,0)" x2="-5" y2="0" stroke="#888" stroke-width="1" opacity="1"/></g><g class="mark-text role-axis-label" pointer-events="none"><text text-anchor="end" transform="translate(-7,403)" font-family="sans-serif" font-size="10px" fill="#000" opacity="1">0.0</text><text text-anchor="end" transform="translate(-7,363)" font-family="sans-serif" font-size="10px" fill="#000" opacity="1">0.1</text><text text-anchor="end" transform="translate(-7,323)" font-family="sans-serif" font-size="10px" fill="#000" opacity="1">0.2</text><text text-anchor="end" transform="translate(-7,283)" font-family="sans-serif" font-size="10px" fill="#000" opacity="1">0.3</text><text text-anchor="end" transform="translate(-7,243)" font-family="sans-serif" font-size="10px" fill="#000" opacity="1">0.4</text><text text-anchor="end" transform="translate(-7,203)" font-family="sans-serif" font-size="10px" fill="#000" opacity="1">0.5</text><text text-anchor="end" transform="translate(-7,163)" font-family="sans-serif" font-size="10px" fill="#000" opacity="1">0.6</text><text text-anchor="end" transform="translate(-7,123.00000000000001)" font-family="sans-serif" font-size="10px" fill="#000" opacity="1">0.7</text><text text-anchor="end" transform="translate(-7,82.99999999999999)" font-family="sans-serif" font-size="10px" fill="#000" opacity="1">0.8</text><text text-anchor="end" transform="translate(-7,42.99999999999999)" font-family="sans-serif" font-size="10px" fill="#000" opacity="1">0.9</text><text text-anchor="end" transform="translate(-7,3)" font-family="sans-serif" font-size="10px" fill="#000" opacity="1">1.0</text></g><g class="mark-rule role-axis-domain" pointer-events="none"><line transform="translate(0,400)" x2="0" y2="-400" stroke="#888" stroke-width="1" opacity="1"/></g><g class="mark-text role-axis-title" pointer-events="none"><text text-anchor="middle" transform="translate(-24.9013671875,200) rotate(-90) translate(0,-2)" font-family="sans-serif" font-size="11px" font-weight="bold" fill="#000" opacity="1">Normalized value</text></g></g><path class="foreground" aria-hidden="true" d="" pointer-events="none" display="none"/></g></g><g class="mark-group role-scope view_509926dd75becd79_0_pathgroup" role="graphics-object" aria-roledescription="group mark container"><g transform="translate(0,0)"><path class="background" aria-hidden="true" d="M0,0h600v400h-600Z"/><g><g class="mark-line role-mark view_509926dd75becd79_0_marks" role="graphics-object" aria-roledescription="line mark container"><path aria-label="Normalized value: 0; a: 0.000; b: 1.000; c: 0.250" role="graphics-symbol" aria-roledescription="line mark" d="M100,400L300,0L500,300" stroke="#4c78a8" stroke-width="3" opacity="1"/></g></g><path class="foreground" aria-hidden="true" d="" display="none"/></g><g transform="translate(0,0)"><path class="background" aria-hidden="true" d="M0,0h600v400h-600Z"/><g><g class="mark-line role-mark view_509926dd75becd79_0_marks" role="graphics-object" aria-roledescription="line mark container"><path aria-label="Normalized value: 0.25; a: 0.250; b: 0.861; c: 0.750" role="graphics-symbol" aria-roledescription="line mark" d="M100,300L300,55.459L500,100" stroke="#4c78a8" stroke-width="3" opacity="1"/></g></g><path class="foreground" aria-hidden="true" d="" display="none"/></g><g transform="translate(0,0)"><path class="background" aria-hidden="true" d="M0,0h600v400h-600Z"/><g><g class="mark-line role-mark view_509926dd75becd79_0_marks" role="graphics-object" aria-roledescription="line mark container"><path aria-label="Normalized value: 0.5; a: 0.500; b: 0.683; c: 0.000" role="graphics-symbol" aria-roledescription="line mark" d="M100,200L300,126.958L500,400" stroke="#4c78a8" stroke-width="3" opacity="1"/></g></g><path class="foreground" aria-hidden="true" d="" display="none"/></g><g transform="translate(0,0)"><path class="background" aria-hidden="true" d="M0,0h600v400h-600Z"/><g><g class="mark-line role-mark view_509926dd75becd79_0_marks" role="graphics-object" aria-roledescription="line mark container"><path aria-label="Normalized value: 0.75; a: 0.750; b: 0.431; c: 0.500" role="graphics-symbol" aria-roledescription="line mark" d="M100,100L300,227.729L500,200" stroke="#4c78a8" stroke-width="3" opacity="1"/></g></g><path class="foreground" aria-hidden="true" d="" display="none"/></g><g transform="translate(0,0)"><path class="background" aria-hidden="true" d="M0,0h600v400h-600Z"/><g><g class="mark-line role-mark view_509926dd75becd79_0_marks" role="graphics-object" aria-roledescription="line mark container"><path aria-label="Normalized value: 1; a: 1.000; b: 0.000; c: 1.000" role="graphics-symbol" aria-roledescription="line mark" d="M100,0L300,400L500,0" stroke="#4c78a8" stroke-width="3" opacity="1"/></g></g><path class="foreground" aria-hidden="true" d="" display="none"/></g></g><g class="mark-symbol role-mark layer_1_marks" role="graphics-object" aria-roledescription="symbol mark container"><path aria-label="a: 0.000; b: 1.000; c: 0.250" role="graphics-symbol" aria-roledescription="point" transform="translate(100,400)" d="M5,0A5,5,0,1,1,-5,0A5,5,0,1,1,5,0" stroke="#4c78a8" stroke-width="2" opacity="0"/><path aria-label="a: 0.000; b: 1.000; c: 0.250" role="graphics-symbol" aria-roledescription="point" transform="translate(300,0)" d="M5,0A5,5,0,1,1,-5,0A5,5,0,1,1,5,0" stroke="#4c78a8" stroke-width="2" opacity="0"/><path aria-label="a: 0.000; b: 1.000; c: 0.250" role="graphics-symbol" aria-roledescription="point" transform="translate(500,300)" d="M5,0A5,5,0,1,1,-5,0A5,5,0,1,1,5,0" stroke="#4c78a8" stroke-width="2" opacity="0"/><path aria-label="a: 0.250; b: 0.861; c: 0.750" role="graphics-symbol" aria-roledescription="point" transform="translate(100,300)" d="M5,0A5,5,0,1,1,-5,0A5,5,0,1,1,5,0" stroke="#4c78a8" stroke-width="2" opacity="0"/><path aria-label="a: 0.250; b: 0.861; c: 0.750" role="graphics-symbol" aria-roledescription="point" transform="translate(300,55.45875354128555)" d="M5,0A5,5,0,1,1,-5,0A5,5,0,1,1,5,0" stroke="#4c78a8" stroke-width="2" opacity="0"/><path aria-label="a: 0.250; b: 0.861; c: 0.750" role="graphics-symbol" aria-roledescription="point" transform="translate(500,100)" d="M5,0A5,5,0,1,1,-5,0A5,5,0,1,1,5,0" stroke="#4c78a8" stroke-width="2" opacity="0"/><path aria-label="a: 0.500; b: 0.683; c: 0.000" role="graphics-symbol" aria-roledescription="point" transform="translate(100,200)" d="M5,0A5,5,0,1,1,-5,0A5,5,0,1,1,5,0" stroke="#4c78a8" stroke-width="2" opacity="0"/><path aria-label="a: 0.500; b: 0.683; c: 0.000" role="graphics-symbol" aria-roledescription="point" transform="translate(300,126.95752220560585)" d="M5,0A5,5,0,1,1,-5,0A5,5,0,1,1,5,0" stroke="#4c78a8" stroke-width="2" opacity="0"/><path aria-label="a: 0.500; b: 0.683; c: 0.000" role="graphics-symbol" aria-roledescription="point" transform="translate(500,400)" d="M5,0A5,5,0,1,1,-5,0A5,5,0,1,1,5,0" stroke="#4c78a8" stroke-width="2" opacity="0"/><path aria-label="a: 0.750; b: 0.431; c: 0.500" role="graphics-symbol" aria-roledescription="point" transform="translate(100,100)" d="M5,0A5,5,0,1,1,-5,0A5,5,0,1,1,5,0" stroke="#4c78a8" stroke-width="2" opacity="0"/><path aria-label="a: 0.750; b: 0.431; c: 0.500" role="graphics-symbol" aria-roledescription="point" transform="translate(300,227.72937677064274)" d="M5,0A5,5,0,1,1,-5,0A5,5,0,1,1,5,0" stroke="#4c78a8" stroke-width="2" opacity="0"/><path aria-label="a: 0.750; b: 0.431; c: 0.500" role="graphics-symbol" aria-roledescription="point" transform="translate(500,200)" d="M5,0A5,5,0,1,1,-5,0A5,5,0,1,1,5,0" stroke="#4c78a8" stroke-width="2" opacity="0"/><path aria-label="a: 1.000; b: 0.000; c: 1.000" role="graphics-symbol" aria-roledescription="point" transform="translate(100,0)" d="M5,0A5,5,0,1,1,-5,0A5,5,0,1,1,5,0" stroke="#4c78a8" stroke-width="2" opacity="0"/><path aria-label="a: 1.000; b: 0.000; c: 1.000" role="graphics-symbol" aria-roledescription="point" transform="translate(300,400)" d="M5,0A5,5,0,1,1,-5,0A5,5,0,1,1,5,0" stroke="#4c78a8" stroke-width="2" opacity="0"/><path aria-label="a: 1.000; b: 0.000; c: 1.000" role="graphics-symbol" aria-roledescription="point" transform="translate(500,0)" d="M5,0A5,5,0,1,1,-5,0A5,5,0,1,1,5,0" stroke="#4c78a8" stroke-width="2" opacity="0"/></g></g><path class="foreground" aria-hidden="true" d="" display="none"/></g></g></g></svg>