<svg xmlns="http://www.w3.org/2000/svg" xmlns:xlink="http://www.w3.org/1999/xlink" version="1.1" class="marks" width="652" height="450" viewBox="0 0 652 450"><g fill="none" stroke-miterlimit="10" transform="translate(47,11)"><g class="mark-group role-frame root" role="graphics-object" aria-roledescription="group mark container"><g transform="translate(0,0)"><path class="background" aria-hidden="true" d="M0,0h600v400h-600Z" stroke-width="0"/><g><g class="mark-group role-axis" aria-hidden="true"><g transform="translate(0.5,0.5)"><path class="background" aria-hidden="true" d="M0,0h0v0h0Z" pointer-events="none"/><g><g class="mark-rule role-axis-grid" pointer-events="none"><line transform="translate(0,400)" x2="600" y2="0" stroke="gray" stroke-opacity="0.5" stroke-width="1" stroke-dasharray="3,3" opacity="1"/><line transform="translate(0,371)" x2="600" y2="0" stroke="gray" stroke-opacity="0.5" stroke-width="1" stroke-dasharray="3,3" opacity="1"/><line transform="translate(0,343)" x2="600" y2="0" stroke="gray" stroke-opacity="0.5" stroke-width="1" stroke-dasharray="3,3" opacity="1"/><line transform="translate(0,314)" x2="600" y2="0" stroke="gray" stroke-opacity="0.5" stroke-width="1" stroke-dasharray="3,3" opacity="1"/><line transform="translate(0,286)" x2="600" y2="0" stroke="gray" stroke-opacity="0.5" stroke-width="1" stroke-dasharray="3,3" opacity="1"/><line transform="translate(0,257)" x2="600" y2="0" stroke="gray" stroke-opacity="0.5" stroke-width="1" stroke-dasharray="3,3" opacity="1"/><line transform="translate(0,229)" x2="600" y2="0" stroke="gray" stroke-opacity="0.5" stroke-width="1" stroke-dasharray="3,3" opacity="1"/><line transform="translate(0,200)" x2="600" y2="0" stroke="gray" stroke-opacity="0.5" stroke-width="1" stroke-dasharray="3,3" opacity="1"/><line transform="translate(0,171)" x2="600" y2="0" stroke="gray" stroke-opacity="0.5" stroke-width="1" stroke-dasharray="3,3" opacity="1"/><line transform="translate(0,143)" x2="600" y2="0" stroke="gray" stroke-opacity="0.5" stroke-width="1" stroke-dasharray="3,3" opacity="1"/><line transform="translate(0,114)" x2="600" y2="0" stroke="gray" stroke-opacity="0.5" stroke-width="1" stroke-dasharray="3,3" opacity="1"/><line transform="translate(0,86)" x2="600" y2="0" stroke="gray" stroke-opacity="0.5" stroke-width="1" stroke-dasharray="3,3" opacity="1"/><line transform="translate(0,57)" x2="600" y2="0" stroke="gray" stroke-opacity="0.5" stroke-width="1" stroke-dasharray="3,3" opacity="1"/><line transform="translate(0,29)" x2="600" y2="0" stroke="gray" stroke-opacity="0.5" stroke-width="1" stroke-dasharray="3,3" opacity="1"/><line transform="translate(0,0)" x2="600" y2="0" stroke="gray" stroke-opacity="0.5" stroke-width="1" stroke-dasharray="3,3" opacity="1"/></g></g><path class="foreground" aria-hidden="true" d="" pointer-events="none" display="none"/></g></g><g class="mark-group role-axis" role="graphics-symbol" aria-roledescription="axis" aria-label="X-axis titled 'x' for a discrete scale with 2 values: A, B"><g transform="translate(0.5,400.5)"><path class="background" aria-hidden="true" d="M0,0h0v0h0Z" pointer-events="none"/><g><g class="mark-rule role-axis-tick" pointer-events="none"><line transform="translate(150,0)" x2="0" y2="5" stroke="#888" stroke-width="1" opacity="1"/><line transform="translate(450,0)" x2="0" y2="5" stroke="#888" stroke-width="1" opacity="1"/></g><g class="mark-text role-axis-label" pointer-events="none"><text text-anchor="end" transform="translate(149.5,7) rotate(270) translate(0,4)" font-family="sans-serif" font-size="12px" fill="#000" opacity="1">A</text><text text-anchor="end" transform="translate(449.5,7) rotate(270) translate(0,4)" font-family="sans-serif" font-size="12px" fill="#000" opacity="1">B</text></g><g class="mark-rule role-axis-domain" pointer-events="none"><line transform="translate(0,0)" x2="600" y2="0" stroke="#888" stroke-width="1" opacity="1"/></g><g class="mark-text role-axis-title" pointer-events="none"><text text-anchor="middle" transform="translate(300,30.00390625)" font-family="sans-serif" font-size="14px" font-weight="bold" fill="#000" opacity="1">x</text></g></g><path class="foreground" aria-hidden="true" d="" pointer-events="none" display="none"/></g></g><g class="mark-group role-axis" role="graphics-symbol" aria-roledescription="axis" aria-label="Y-axis titled 'y' for a linear scale with values from 0.8 to 2.2"><g transform="translate(0.5,0.5)"><path class="background" aria-hidden="true" d="M0,0h0v0h0Z" pointer-events="none"/><g><g class="mark-rule role-axis-tick" pointer-events="none"><line transform="translate(0,400)" x2="-5" y2="0" stroke="#888" stroke-width="1" opacity="1"/><line transform="translate(0,371)" x2="-5" y2="0" stroke="#888" stroke-width="1" opacity="1"/><line transform="translate(0,343)" x2="-5" y2="0" stroke="#888" stroke-width="1" opacity="1"/><line transform="translate(0,314)" x2="-5" y2="0" stroke="#888" stroke-width="1" opacity="1"/><line transform="translate(0,286)" x2="-5" y2="0" stroke="#888" stroke-width="1" opacity="1"/><line transform="translate(0,257)" x2="-5" y2="0" stroke="#888" stroke-width="1" opacity="1"/><line transform="translate(0,229)" x2="-5" y2="0" stroke="#888" stroke-width="1" opacity="1"/><line transform="translate(0,200)" x2="-5" y2="0" stroke="#888" stroke-width="1" opacity="1"/><line transform="translate(0,171)" x2="-5" y2="0" stroke="#888" stroke-width="1" opacity="1"/><line transform="translate(0,143)" x2="-5" y2="0" stroke="#888" stroke-width="1" opacity="1"/><line transform="translate(0,114)" x2="-5" y2="0" stroke="#888" stroke-width="1" opacity="1"/><line transform="translate(0,86)" x2="-5" y2="0" stroke="#888" stroke-width="1" opacity="1"/><line transform="translate(0,57)" x2="-5" y2="0" stroke="#888" stroke-width="1" opacity="1"/><line transform="translate(0,29)" x2="-5" y2="0" stroke="#888" stroke-width="1" opacity="1"/><line transform="translate(0,0)" x2="-5" y2="0" stroke="#888" stroke-width="1" opacity="1"/></g><g class="mark-text role-axis-label" pointer-events="none"><text text-anchor="end" transform="translate(-7,404)" font-family="sans-serif" font-size="12px" fill="#000" opacity="1">0.8</text><text text-anchor="end" transform="translate(-7,375.42857142857144)" font-family="sans-serif" font-size="12px" fill="#000" opacity="1">0.9</text><text text-anchor="end" transform="translate(-7,346.8571428571429)" font-family="sans-serif" font-size="12px" fill="#000" opacity="1">1.0</text><text text-anchor="end" transform="translate(-7,318.2857142857143)" font-family="sans-serif" font-size="12px" fill="#000" opacity="1">1.1</text><text text-anchor="end" transform="translate(-7,289.7142857142858)" font-family="sans-serif" font-size="12px" fill="#000" opacity="1">1.2</text><text text-anchor="end" transform="translate(-7,261.14285714285717)" font-family="sans-serif" font-size="12px" fill="#000" opacity="1">1.3</text><text text-anchor="end" transform="translate(-7,232.57142857142864)" font-family="sans-serif" font-size="12px" fill="#000" opacity="1">1.4</text><text text-anchor="end" transform="translate(-7,204)" font-family="sans-serif" font-size="12px" fill="#000" opacity="1">1.5</text><text text-anchor="end" transform="translate(-7,175.42857142857144)" font-family="sans-serif" font-size="12px" fill="#000" opacity="1">1.6</text><text text-anchor="end" transform="translate(-7,146.85714285714292)" font-family="sans-serif" font-size="12px" fill="#000" opacity="1">1.7</text><text text-anchor="end" transform="translate(-7,118.28571428571432)" font-family="sans-serif" font-size="12px" fill="#000" opacity="1">1.8</text><text text-anchor="end" transform="translate(-7,89.71428571428577)" font-family="sans-serif" font-size="12px" fill="#000" opacity="1">1.9</text><text text-anchor="end" transform="translate(-7,61.14285714285721)" font-family="sans-serif" font-size="12px" fill="#000" opacity="1">2.0</text><text text-anchor="end" transform="translate(-7,32.571428571428605)" font-family="sans-serif" font-size="12px" fill="#000" opacity="1">2.1</text><text text-anchor="end" transform="translate(-7,4)" font-family="sans-serif" font-size="12px" fill="#000" opacity="1">2.2</text></g><g class="mark-rule role-axis-domain" pointer-events="none"><line transform="translate(0,400)" x2="0" y2="-400" stroke="#888" stroke-width="1" opacity="1"/></g><g class="mark-text role-axis-title" pointer-events="none"><text text-anchor="middle" transform="translate(-27.681640625,200) rotate(-90) translate(0,-3)" font-family="sans-serif" font-size="14px" font-weight="bold" fill="#000" opacity="1">y</text></g></g><path class="foreground" aria-hidden="true" d="" pointer-events="none" display="none"/></g></g><g class="mark-rule role-mark layer_0_marks" role="graphics-object" aria-roledescription="rule mark container"><line aria-label="x: A; y: 0.882148869802; upper_y: 1.1178511302; Mean of y: 1; Mean + stdev of y: 1.1178511302; Mean - stdev of y: 0.882148869802" role="graphics-symbol" aria-roledescription="errorbar" transform="translate(150,376.5288943422166)" x2="0" y2="-67.34350297014737" stroke="steelblue"/><line aria-label="x: B; y: 1.8821488698; upper_y: 2.1178511302; Mean of y: 2; Mean + stdev of y: 2.1178511302; Mean - stdev of y: 1.8821488698" role="graphics-symbol" aria-roledescription="errorbar" transform="translate(450,90.81460862793094)" x2="0" y2="-67.34350297014743" stroke="steelblue"/></g><g class="mark-symbol role-mark layer_1_marks" role="graphics-object" aria-roledescription="symbol mark container"><path aria-label="x: A; Mean of y: 1" role="graphics-symbol" aria-roledescription="point" transform="translate(150,342.8571428571429)" d="M2.739,0A2.739,2.739,0,1,1,-2.739,0A2.739,2.739,0,1,1,2.739,0" fill="steelblue" stroke-width="2"/><path aria-label="x: B; Mean of y: 2" role="graphics-symbol" aria-roledescription="point" transform="translate(450,57.14285714285721)" d="M2.739,0A2.739,2.739,0,1,1,-2.739,0A2.739,2.739,0,1,1,2.739,0" fill="steelblue" stroke-width="2"/></g></g><path class="foreground" aria-hidden="true" d="" display="none"/></g></g></g></svg>