<svg xmlns="http://www.w3.org/2000/svg" xmlns:xlink="http://www.w3.org/1999/xlink" version="1.1" class="marks" width="848" height="844" viewBox="0 0 848 844"><rect width="848" height="844" fill="white"/><g fill="none" stroke-miterlimit="10" transform="translate(41,7)"><g class="mark-group role-frame root" role="graphics-object" aria-roledescription="group mark container"><g transform="translate(0,0)"><path class="background" aria-hidden="true" d="M0,0h800v800h-800Z" stroke="#ddd" stroke-width="0"/><g><g class="mark-group role-axis" aria-hidden="true"><g transform="translate(0.5,800.5)"><path class="background" aria-hidden="true" d="M0,0h0v0h0Z" pointer-events="none"/><g><g class="mark-rule role-axis-grid" pointer-events="none"><line transform="translate(15,-800)" x2="0" y2="800" stroke="gray" stroke-opacity="0.5" stroke-width="1" stroke-dasharray="3,3" opacity="1"/><line transform="translate(53,-800)" x2="0" y2="800" stroke="gray" stroke-opacity="0.5" stroke-width="1" stroke-dasharray="3,3" opacity="1"/><line transform="translate(90,-800)" x2="0" y2="800" stroke="gray" stroke-opacity="0.5" stroke-width="1" stroke-dasharray="3,3" opacity="1"/><line transform="translate(128,-800)" x2="0" y2="800" stroke="gray" stroke-opacity="0.5" stroke-width="1" stroke-dasharray="3,3" opacity="1"/><line transform="translate(165,-800)" x2="0" y2="800" stroke="gray" stroke-opacity="0.5" stroke-width="1" stroke-dasharray="3,3" opacity="1"/><line transform="translate(203,-800)" x2="0" y2="800" stroke="gray" stroke-opacity="0.5" stroke-width="1" stroke-dasharray="3,3" opacity="1"/><line transform="translate(241,-800)" x2="0" y2="800" stroke="gray" stroke-opacity="0.5" stroke-width="1" stroke-dasharray="3,3" opacity="1"/><line transform="translate(278,-800)" x2="0" y2="800" stroke="gray" stroke-opacity="0.5" stroke-width="1" stroke-dasharray="3,3" opacity="1"/><line transform="translate(316,-800)" x2="0" y2="800" stroke="gray" stroke-opacity="0.5" stroke-width="1" stroke-dasharray="3,3" opacity="1"/><line transform="translate(353,-800)" x2="0" y2="800" stroke="gray" stroke-opacity="0.5" stroke-width="1" stroke-dasharray="3,3" opacity="1"/><line transform="translate(391,-800)" x2="0" y2="800" stroke="gray" stroke-opacity="0.5" stroke-width="1" stroke-dasharray="3,3" opacity="1"/><line transform="translate(428,-800)" x2="0" y2="800" stroke="gray" stroke-opacity="0.5" stroke-width="1" stroke-dasharray="3,3" opacity="1"/><line transform="translate(466,-800)" x2="0" y2="800" stroke="gray" stroke-opacity="0.5" stroke-width="1" stroke-dasharray="3,3" opacity="1"/><line transform="translate(503,-800)" x2="0" y2="800" stroke="gray" stroke-opacity="0.5" stroke-width="1" stroke-dasharray="3,3" opacity="1"/><line transform="translate(541,-800)" x2="0" y2="800" stroke="gray" stroke-opacity="0.5" stroke-width="1" stroke-dasharray="3,3" opacity="1"/><line transform="translate(578,-800)" x2="0" y2="800" stroke="gray" stroke-opacity="0.5" stroke-width="1" stroke-dasharray="3,3" opacity="1"/><line transform="translate(616,-800)" x2="0" y2="800" stroke="gray" stroke-opacity="0.5" stroke-width="1" stroke-dasharray="3,3" opacity="1"/><line transform="translate(653,-800)" x2="0" y2="800" stroke="gray" stroke-opacity="0.5" stroke-width="1" stroke-dasharray="3,3" opacity="1"/><line transform="translate(691,-800)" x2="0" y2="800" stroke="gray" stroke-opacity="0.5" stroke-width="1" stroke-dasharray="3,3" opacity="1"/><line transform="translate(728,-800)" x2="0" y2="800" stroke="gray" stroke-opacity="0.5" stroke-width="1" stroke-dasharray="3,3" opacity="1"/><line transform="translate(766,-800)" x2="0" y2="800" stroke="gray" stroke-opacity="0.5" stroke-width="1" stroke-dasharray="3,3" opacity="1"/></g></g><path class="foreground" aria-hidden="true" d="" pointer-events="none" display="none"/></g></g><g class="mark-group role-axis" aria-hidden="true"><g transform="translate(0.5,0.5)"><path class="background" aria-hidden="true" d="M0,0h0v0h0Z" pointer-events="none"/><g><g class="mark-rule role-axis-grid" pointer-events="none"><line transform="translate(0,785)" x2="800" y2="0" stroke="gray" stroke-opacity="0.5" stroke-width="1" stroke-dasharray="3,3" opacity="1"/><line transform="translate(0,747)" x2="800" y2="0" stroke="gray" stroke-opacity="0.5" stroke-width="1" stroke-dasharray="3,3" opacity="1"/><line transform="translate(0,710)" x2="800" y2="0" stroke="gray" stroke-opacity="0.5" stroke-width="1" stroke-dasharray="3,3" opacity="1"/><line transform="translate(0,672)" x2="800" y2="0" stroke="gray" stroke-opacity="0.5" stroke-width="1" stroke-dasharray="3,3" opacity="1"/><line transform="translate(0,635)" x2="800" y2="0" stroke="gray" stroke-opacity="0.5" stroke-width="1" stroke-dasharray="3,3" opacity="1"/><line transform="translate(0,597)" x2="800" y2="0" stroke="gray" stroke-opacity="0.5" stroke-width="1" stroke-dasharray="3,3" opacity="1"/><line transform="translate(0,559)" x2="800" y2="0" stroke="gray" stroke-opacity="0.5" stroke-width="1" stroke-dasharray="3,3" opacity="1"/><line transform="translate(0,522)" x2="800" y2="0" stroke="gray" stroke-opacity="0.5" stroke-width="1" stroke-dasharray="3,3" opacity="1"/><line transform="translate(0,484)" x2="800" y2="0" stroke="gray" stroke-opacity="0.5" stroke-width="1" stroke-dasharray="3,3" opacity="1"/><line transform="translate(0,447)" x2="800" y2="0" stroke="gray" stroke-opacity="0.5" stroke-width="1" stroke-dasharray="3,3" opacity="1"/><line transform="translate(0,409)" x2="800" y2="0" stroke="gray" stroke-opacity="0.5" stroke-width="1" stroke-dasharray="3,3" opacity="1"/><line transform="translate(0,372)" x2="800" y2="0" stroke="gray" stroke-opacity="0.5" stroke-width="1" stroke-dasharray="3,3" opacity="1"/><line transform="translate(0,334)" x2="800" y2="0" stroke="gray" stroke-opacity="0.5" stroke-width="1" stroke-dasharray="3,3" opacity="1"/><line transform="translate(0,297)" x2="800" y2="0" stroke="gray" stroke-opacity="0.5" stroke-width="1" stroke-dasharray="3,3" opacity="1"/><line transform="translate(0,259)" x2="800" y2="0" stroke="gray" stroke-opacity="0.5" stroke-width="1" stroke-dasharray="3,3" opacity="1"/><line transform="translate(0,222)" x2="800" y2="0" stroke="gray" stroke-opacity="0.5" stroke-width="1" stroke-dasharray="3,3" opacity="1"/><line transform="translate(0,184)" x2="800" y2="0" stroke="gray" stroke-opacity="0.5" stroke-width="1" stroke-dasharray="3,3" opacity="1"/><line transform="translate(0,147)" x2="800" y2="0" stroke="gray" stroke-opacity="0.5" stroke-width="1" stroke-dasharray="3,3" opacity="1"/><line transform="translate(0,109)" x2="800" y2="0" stroke="gray" stroke-opacity="0.5" stroke-width="1" stroke-dasharray="3,3" opacity="1"/><line transform="translate(0,72)" x2="800" y2="0" stroke="gray" stroke-opacity="0.5" stroke-width="1" stroke-dasharray="3,3" opacity="1"/><line transform="translate(0,34)" x2="800" y2="0" stroke="gray" stroke-opacity="0.5" stroke-width="1" stroke-dasharray="3,3" opacity="1"/></g></g><path class="foreground" aria-hidden="true" d="" pointer-events="none" display="none"/></g></g><g class="mark-group role-axis" role="graphics-symbol" aria-roledescription="axis" aria-label="X-axis titled 'true' for a linear scale with values from 1 to 5"><g transform="translate(0.5,800.5)"><path class="background" aria-hidden="true" d="M0,0h0v0h0Z" pointer-events="none"/><g><g class="mark-rule role-axis-tick" pointer-events="none"><line transform="translate(15,0)" x2="0" y2="5" stroke="#888" stroke-width="1" opacity="1"/><line transform="translate(53,0)" x2="0" y2="5" stroke="#888" stroke-width="1" opacity="1"/><line transform="translate(90,0)" x2="0" y2="5" stroke="#888" stroke-width="1" opacity="1"/><line transform="translate(128,0)" x2="0" y2="5" stroke="#888" stroke-width="1" opacity="1"/><line transform="translate(165,0)" x2="0" y2="5" stroke="#888" stroke-width="1" opacity="1"/><line transform="translate(203,0)" x2="0" y2="5" stroke="#888" stroke-width="1" opacity="1"/><line transform="translate(241,0)" x2="0" y2="5" stroke="#888" stroke-width="1" opacity="1"/><line transform="translate(278,0)" x2="0" y2="5" stroke="#888" stroke-width="1" opacity="1"/><line transform="translate(316,0)" x2="0" y2="5" stroke="#888" stroke-width="1" opacity="1"/><line transform="translate(353,0)" x2="0" y2="5" stroke="#888" stroke-width="1" opacity="1"/><line transform="translate(391,0)" x2="0" y2="5" stroke="#888" stroke-width="1" opacity="1"/><line transform="translate(428,0)" x2="0" y2="5" stroke="#888" stroke-width="1" opacity="1"/><line transform="translate(466,0)" x2="0" y2="5" stroke="#888" stroke-width="1" opacity="1"/><line transform="translate(503,0)" x2="0" y2="5" stroke="#888" stroke-width="1" opacity="1"/><line transform="translate(541,0)" x2="0" y2="5" stroke="#888" stroke-width="1" opacity="1"/><line transform="translate(578,0)" x2="0" y2="5" stroke="#888" stroke-width="1" opacity="1"/><line transform="translate(616,0)" x2="0" y2="5" stroke="#888" stroke-width="1" opacity="1"/><line transform="translate(653,0)" x2="0" y2="5" stroke="#888" stroke-width="1" opacity="1"/><line transform="translate(691,0)" x2="0" y2="5" stroke="#888" stroke-width="1" opacity="1"/><line transform="translate(728,0)" x2="0" y2="5" stroke="#888" stroke-width="1" opacity="1"/><line transform="translate(766,0)" x2="0" y2="5" stroke="#888" stroke-width="1" opacity="1"/></g><g class="mark-text role-axis-label" pointer-events="none"><text text-anchor="middle" transform="translate(15.38461538461538,15)" font-family="sans-serif" font-size="10px" fill="#000" opacity="1">1.0</text><text text-anchor="middle" transform="translate(52.90806754221388,15)" font-family="sans-serif" font-size="10px" fill="#000" opacity="1">1.2</text><text text-anchor="middle" transform="translate(90.43151969981237,15)" font-family="sans-serif" font-size="10px" fill="#000" opacity="1">1.4</text><text text-anchor="middle" transform="translate(127.95497185741091,15)" font-family="sans-serif" font-size="10px" fill="#000" opacity="1">1.6</text><text text-anchor="middle" transform="translate(165.4784240150094,15)" font-family="sans-serif" font-size="10px" fill="#000" opacity="1">1.8</text><text text-anchor="middle" transform="translate(203.00187617260787,15)" font-family="sans-serif" font-size="10px" fill="#000" opacity="1">2.0</text><text text-anchor="middle" transform="translate(240.5253283302064,15)" font-family="sans-serif" font-size="10px" fill="#000" opacity="1">2.2</text><text text-anchor="middle" transform="translate(278.04878048780483,15)" font-family="sans-serif" font-size="10px" fill="#000" opacity="1">2.4</text><text text-anchor="middle" transform="translate(315.5722326454034,15)" font-family="sans-serif" font-size="10px" fill="#000" opacity="1">2.6</text><text text-anchor="middle" transform="translate(353.09568480300186,15)" font-family="sans-serif" font-size="10px" fill="#000" opacity="1">2.8</text><text text-anchor="middle" transform="translate(390.61913696060043,15)" font-family="sans-serif" font-size="10px" fill="#000" opacity="1">3.0</text><text text-anchor="middle" transform="translate(428.1425891181989,15)" font-family="sans-serif" font-size="10px" fill="#000" opacity="1">3.2</text><text text-anchor="middle" transform="translate(465.6660412757974,15)" font-family="sans-serif" font-size="10px" fill="#000" opacity="1">3.4</text><text text-anchor="middle" transform="translate(503.1894934333959,15)" font-family="sans-serif" font-size="10px" fill="#000" opacity="1">3.6</text><text text-anchor="middle" transform="translate(540.7129455909944,15)" font-family="sans-serif" font-size="10px" fill="#000" opacity="1">3.8</text><text text-anchor="middle" transform="translate(578.2363977485929,15)" font-family="sans-serif" font-size="10px" fill="#000" opacity="1">4.0</text><text text-anchor="middle" transform="translate(615.7598499061914,15)" font-family="sans-serif" font-size="10px" fill="#000" opacity="1">4.2</text><text text-anchor="middle" transform="translate(653.2833020637901,15)" font-family="sans-serif" font-size="10px" fill="#000" opacity="1">4.4</text><text text-anchor="middle" transform="translate(690.8067542213884,15)" font-family="sans-serif" font-size="10px" fill="#000" opacity="1">4.6</text><text text-anchor="middle" transform="translate(728.330206378987,15)" font-family="sans-serif" font-size="10px" fill="#000" opacity="1">4.8</text><text text-anchor="middle" transform="translate(765.8536585365854,15)" font-family="sans-serif" font-size="10px" fill="#000" opacity="1">5.0</text></g><g class="mark-rule role-axis-domain" pointer-events="none"><line transform="translate(0,0)" x2="800" y2="0" stroke="#888" stroke-width="1" opacity="1"/></g><g class="mark-text role-axis-title" pointer-events="none"><text text-anchor="middle" transform="translate(400,30)" font-family="sans-serif" font-size="11px" font-weight="bold" fill="#000" opacity="1">true</text></g></g><path class="foreground" aria-hidden="true" d="" pointer-events="none" display="none"/></g></g><g class="mark-group role-axis" role="graphics-symbol" aria-roledescription="axis" aria-label="Y-axis titled 'pred' for a linear scale with values from 1 to 5"><g transform="translate(0.5,0.5)"><path class="background" aria-hidden="true" d="M0,0h0v0h0Z" pointer-events="none"/><g><g class="mark-rule role-axis-tick" pointer-events="none"><line transform="translate(0,785)" x2="-5" y2="0" stroke="#888" stroke-width="1" opacity="1"/><line transform="translate(0,747)" x2="-5" y2="0" stroke="#888" stroke-width="1" opacity="1"/><line transform="translate(0,710)" x2="-5" y2="0" stroke="#888" stroke-width="1" opacity="1"/><line transform="translate(0,672)" x2="-5" y2="0" stroke="#888" stroke-width="1" opacity="1"/><line transform="translate(0,635)" x2="-5" y2="0" stroke="#888" stroke-width="1" opacity="1"/><line transform="translate(0,597)" x2="-5" y2="0" stroke="#888" stroke-width="1" opacity="1"/><line transform="translate(0,559)" x2="-5" y2="0" stroke="#888" stroke-width="1" opacity="1"/><line transform="translate(0,522)" x2="-5" y2="0" stroke="#888" stroke-width="1" opacity="1"/><line transform="translate(0,484)" x2="-5" y2="0" stroke="#888" stroke-width="1" opacity="1"/><line transform="translate(0,447)" x2="-5" y2="0" stroke="#888" stroke-width="1" opacity="1"/><line transform="translate(0,409)" x2="-5" y2="0" stroke="#888" stroke-width="1" opacity="1"/><line transform="translate(0,372)" x2="-5" y2="0" stroke="#888" stroke-width="1" opacity="1"/><line transform="translate(0,334)" x2="-5" y2="0" stroke="#888" stroke-width="1" opacity="1"/><line transform="translate(0,297)" x2="-5" y2="0" stroke="#888" stroke-width="1" opacity="1"/><line transform="translate(0,259)" x2="-5" y2="0" stroke="#888" stroke-width="1" opacity="1"/><line transform="translate(0,222)" x2="-5" y2="0" stroke="#888" stroke-width="1" opacity="1"/><line transform="translate(0,184)" x2="-5" y2="0" stroke="#888" stroke-width="1" opacity="1"/><line transform="translate(0,147)" x2="-5" y2="0" stroke="#888" stroke-width="1" opacity="1"/><line transform="translate(0,109)" x2="-5" y2="0" stroke="#888" stroke-width="1" opacity="1"/><line transform="translate(0,72)" x2="-5" y2="0" stroke="#888" stroke-width="1" opacity="1"/><line transform="translate(0,34)" x2="-5" y2="0" stroke="#888" stroke-width="1" opacity="1"/></g><g class="mark-text role-axis-label" pointer-events="none"><text text-anchor="end" transform="translate(-7,787.6153846153845)" font-family="sans-serif" font-size="10px" fill="#000" opacity="1">1.0</text><text text-anchor="end" transform="translate(-7,750.0919324577861)" font-family="sans-serif" font-size="10px" fill="#000" opacity="1">1.2</text><text text-anchor="end" transform="translate(-7,712.5684803001876)" font-family="sans-serif" font-size="10px" fill="#000" opacity="1">1.4</text><text text-anchor="end" transform="translate(-7,675.0450281425891)" font-family="sans-serif" font-size="10px" fill="#000" opacity="1">1.6</text><text text-anchor="end" transform="translate(-7,637.5215759849906)" font-family="sans-serif" font-size="10px" fill="#000" opacity="1">1.8</text><text text-anchor="end" transform="translate(-7,599.9981238273921)" font-family="sans-serif" font-size="10px" fill="#000" opacity="1">2.0</text><text text-anchor="end" transform="translate(-7,562.4746716697936)" font-family="sans-serif" font-size="10px" fill="#000" opacity="1">2.2</text><text text-anchor="end" transform="translate(-7,524.9512195121952)" font-family="sans-serif" font-size="10px" fill="#000" opacity="1">2.4</text><text text-anchor="end" transform="translate(-7,487.42776735459654)" font-family="sans-serif" font-size="10px" fill="#000" opacity="1">2.6</text><text text-anchor="end" transform="translate(-7,449.9043151969981)" font-family="sans-serif" font-size="10px" fill="#000" opacity="1">2.8</text><text text-anchor="end" transform="translate(-7,412.38086303939957)" font-family="sans-serif" font-size="10px" fill="#000" opacity="1">3.0</text><text text-anchor="end" transform="translate(-7,374.8574108818011)" font-family="sans-serif" font-size="10px" fill="#000" opacity="1">3.2</text><text text-anchor="end" transform="translate(-7,337.3339587242026)" font-family="sans-serif" font-size="10px" fill="#000" opacity="1">3.4</text><text text-anchor="end" transform="translate(-7,299.8105065666041)" font-family="sans-serif" font-size="10px" fill="#000" opacity="1">3.6</text><text text-anchor="end" transform="translate(-7,262.28705440900563)" font-family="sans-serif" font-size="10px" fill="#000" opacity="1">3.8</text><text text-anchor="end" transform="translate(-7,224.76360225140704)" font-family="sans-serif" font-size="10px" fill="#000" opacity="1">4.0</text><text text-anchor="end" transform="translate(-7,187.24015009380855)" font-family="sans-serif" font-size="10px" fill="#000" opacity="1">4.2</text><text text-anchor="end" transform="translate(-7,149.71669793620995)" font-family="sans-serif" font-size="10px" fill="#000" opacity="1">4.4</text><text text-anchor="end" transform="translate(-7,112.19324577861164)" font-family="sans-serif" font-size="10px" fill="#000" opacity="1">4.6</text><text text-anchor="end" transform="translate(-7,74.66979362101307)" font-family="sans-serif" font-size="10px" fill="#000" opacity="1">4.8</text><text text-anchor="end" transform="translate(-7,37.14634146341457)" font-family="sans-serif" font-size="10px" fill="#000" opacity="1">5.0</text></g><g class="mark-rule role-axis-domain" pointer-events="none"><line transform="translate(0,800)" x2="0" y2="-800" stroke="#888" stroke-width="1" opacity="1"/></g><g class="mark-text role-axis-title" pointer-events="none"><text text-anchor="middle" transform="translate(-24.9013671875,400) rotate(-90) translate(0,-2)" font-family="sans-serif" font-size="11px" font-weight="bold" fill="#000" opacity="1">pred</text></g></g><path class="foreground" aria-hidden="true" d="" pointer-events="none" display="none"/></g></g><g class="mark-line role-mark layer_0_marks" role="graphics-object" aria-roledescription="line mark container"><path aria-label="x: 0.918; y: 0.918" role="graphics-symbol" aria-roledescription="line mark" d="M0,800L800,0" stroke="gray" stroke-width="2" stroke-dasharray="5,5"/></g><g class="mark-symbol role-mark layer_1_marks" role="graphics-object" aria-roledescription="symbol mark container"><path aria-label="true: 1; pred: 1.1" role="graphics-symbol" aria-roledescription="point" transform="translate(15.38461538461538,765.8536585365854)" d="M5,0A5,5,0,1,1,-5,0A5,5,0,1,1,5,0" fill="red" stroke-width="2" opacity="0.5"/><path aria-label="true: 2; pred: 1.8" role="graphics-symbol" aria-roledescription="point" transform="translate(203.00187617260787,634.5215759849906)" d="M5,0A5,5,0,1,1,-5,0A5,5,0,1,1,5,0" fill="red" stroke-width="2" opacity="0.5"/><path aria-label="true: 3; pred: 3.2" role="graphics-symbol" aria-roledescription="point" transform="translate(390.61913696060043,371.8574108818011)" d="M5,0A5,5,0,1,1,-5,0A5,5,0,1,1,5,0" fill="red" stroke-width="2" opacity="0.5"/><path aria-label="true: 4; pred: 3.9" role="graphics-symbol" aria-roledescription="point" transform="translate(578.2363977485929,240.52532833020638)" d="M5,0A5,5,0,1,1,-5,0A5,5,0,1,1,5,0" fill="red" stroke-width="2" opacity="0.5"/><path aria-label="true: 5; pred: 5.1" role="graphics-symbol" aria-roledescription="point" transform="translate(765.8536585365854,15.38461538461533)" d="M5,0A5,5,0,1,1,-5,0A5,5,0,1,1,5,0" fill="red" stroke-width="2" opacity="0.5"/></g></g><path class="foreground" aria-hidden="true" d="" display="none"/></g></g></g></svg>