<svg xmlns="http://www.w3.org/2000/svg" xmlns:xlink="http://www.w3.org/1999/xlink" version="1.1" class="marks" width="654" height="644" viewBox="0 0 654 644"><rect width="654" height="644" fill="white"/><g fill="none" stroke-miterlimit="10" transform="translate(47,7)"><g class="mark-group role-frame root" role="graphics-object" aria-roledescription="group mark container"><g transform="translate(0,0)"><path class="background" aria-hidden="true" d="M0,0h600v600h-600Z" stroke="#ddd" stroke-width="0"/><g><g class="mark-group role-axis" aria-hidden="true"><g transform="translate(0.5,600.5)"><path class="background" aria-hidden="true" d="M0,0h0v0h0Z" pointer-events="none"/><g><g class="mark-rule role-axis-grid" pointer-events="none"><line transform="translate(12,-600)" x2="0" y2="600" stroke="gray" stroke-opacity="0.5" stroke-width="1" stroke-dasharray="3,3" opacity="1"/><line transform="translate(43,-600)" x2="0" y2="600" stroke="gray" stroke-opacity="0.5" stroke-width="1" stroke-dasharray="3,3" opacity="1"/><line transform="translate(74,-600)" x2="0" y2="600" stroke="gray" stroke-opacity="0.5" stroke-width="1" stroke-dasharray="3,3" opacity="1"/><line transform="translate(105,-600)" x2="0" y2="600" stroke="gray" stroke-opacity="0.5" stroke-width="1" stroke-dasharray="3,3" opacity="1"/><line transform="translate(136,-600)" x2="0" y2="600" stroke="gray" stroke-opacity="0.5" stroke-width="1" stroke-dasharray="3,3" opacity="1"/><line transform="translate(167,-600)" x2="0" y2="600" stroke="gray" stroke-opacity="0.5" stroke-width="1" stroke-dasharray="3,3" opacity="1"/><line transform="translate(198,-600)" x2="0" y2="600" stroke="gray" stroke-opacity="0.5" stroke-width="1" stroke-dasharray="3,3" opacity="1"/><line transform="translate(229,-600)" x2="0" y2="600" stroke="gray" stroke-opacity="0.5" stroke-width="1" stroke-dasharray="3,3" opacity="1"/><line transform="translate(260,-600)" x2="0" y2="600" stroke="gray" stroke-opacity="0.5" stroke-width="1" stroke-dasharray="3,3" opacity="1"/><line transform="translate(291,-600)" x2="0" y2="600" stroke="gray" stroke-opacity="0.5" stroke-width="1" stroke-dasharray="3,3" opacity="1"/><line transform="translate(322,-600)" x2="0" y2="600" stroke="gray" stroke-opacity="0.5" stroke-width="1" stroke-dasharray="3,3" opacity="1"/><line transform="translate(353,-600)" x2="0" y2="600" stroke="gray" stroke-opacity="0.5" stroke-width="1" stroke-dasharray="3,3" opacity="1"/><line transform="translate(384,-600)" x2="0" y2="600" stroke="gray" stroke-opacity="0.5" stroke-width="1" stroke-dasharray="3,3" opacity="1"/><line transform="translate(415,-600)" x2="0" y2="600" stroke="gray" stroke-opacity="0.5" stroke-width="1" stroke-dasharray="3,3" opacity="1"/><line transform="translate(446,-600)" x2="0" y2="600" stroke="gray" stroke-opacity="0.5" stroke-width="1" stroke-dasharray="3,3" opacity="1"/><line transform="translate(477,-600)" x2="0" y2="600" stroke="gray" stroke-opacity="0.5" stroke-width="1" stroke-dasharray="3,3" opacity="1"/><line transform="translate(508,-600)" x2="0" y2="600" stroke="gray" stroke-opacity="0.5" stroke-width="1" stroke-dasharray="3,3" opacity="1"/><line transform="translate(539,-600)" x2="0" y2="600" stroke="gray" stroke-opacity="0.5" stroke-width="1" stroke-dasharray="3,3" opacity="1"/><line transform="translate(570,-600)" x2="0" y2="600" stroke="gray" stroke-opacity="0.5" stroke-width="1" stroke-dasharray="3,3" opacity="1"/></g></g><path class="foreground" aria-hidden="true" d="" pointer-events="none" display="none"/></g></g><g class="mark-group role-axis" aria-hidden="true"><g transform="translate(0.5,0.5)"><path class="background" aria-hidden="true" d="M0,0h0v0h0Z" pointer-events="none"/><g><g class="mark-rule role-axis-grid" pointer-events="none"><line transform="translate(0,588)" x2="600" y2="0" stroke="gray" stroke-opacity="0.5" stroke-width="1" stroke-dasharray="3,3" opacity="1"/><line transform="translate(0,557)" x2="600" y2="0" stroke="gray" stroke-opacity="0.5" stroke-width="1" stroke-dasharray="3,3" opacity="1"/><line transform="translate(0,526)" x2="600" y2="0" stroke="gray" stroke-opacity="0.5" stroke-width="1" stroke-dasharray="3,3" opacity="1"/><line transform="translate(0,495)" x2="600" y2="0" stroke="gray" stroke-opacity="0.5" stroke-width="1" stroke-dasharray="3,3" opacity="1"/><line transform="translate(0,464)" x2="600" y2="0" stroke="gray" stroke-opacity="0.5" stroke-width="1" stroke-dasharray="3,3" opacity="1"/><line transform="translate(0,433)" x2="600" y2="0" stroke="gray" stroke-opacity="0.5" stroke-width="1" stroke-dasharray="3,3" opacity="1"/><line transform="translate(0,402)" x2="600" y2="0" stroke="gray" stroke-opacity="0.5" stroke-width="1" stroke-dasharray="3,3" opacity="1"/><line transform="translate(0,371)" x2="600" y2="0" stroke="gray" stroke-opacity="0.5" stroke-width="1" stroke-dasharray="3,3" opacity="1"/><line transform="translate(0,340)" x2="600" y2="0" stroke="gray" stroke-opacity="0.5" stroke-width="1" stroke-dasharray="3,3" opacity="1"/><line transform="translate(0,309)" x2="600" y2="0" stroke="gray" stroke-opacity="0.5" stroke-width="1" stroke-dasharray="3,3" opacity="1"/><line transform="translate(0,278)" x2="600" y2="0" stroke="gray" stroke-opacity="0.5" stroke-width="1" stroke-dasharray="3,3" opacity="1"/><line transform="translate(0,247)" x2="600" y2="0" stroke="gray" stroke-opacity="0.5" stroke-width="1" stroke-dasharray="3,3" opacity="1"/><line transform="translate(0,216)" x2="600" y2="0" stroke="gray" stroke-opacity="0.5" stroke-width="1" stroke-dasharray="3,3" opacity="1"/><line transform="translate(0,185)" x2="600" y2="0" stroke="gray" stroke-opacity="0.5" stroke-width="1" stroke-dasharray="3,3" opacity="1"/><line transform="translate(0,154)" x2="600" y2="0" stroke="gray" stroke-opacity="0.5" stroke-width="1" stroke-dasharray="3,3" opacity="1"/><line transform="translate(0,123)" x2="600" y2="0" stroke="gray" stroke-opacity="0.5" stroke-width="1" stroke-dasharray="3,3" opacity="1"/><line transform="translate(0,92)" x2="600" y2="0" stroke="gray" stroke-opacity="0.5" stroke-width="1" stroke-dasharray="3,3" opacity="1"/><line transform="translate(0,61)" x2="600" y2="0" stroke="gray" stroke-opacity="0.5" stroke-width="1" stroke-dasharray="3,3" opacity="1"/><line transform="translate(0,30)" x2="600" y2="0" stroke="gray" stroke-opacity="0.5" stroke-width="1" stroke-dasharray="3,3" opacity="1"/></g></g><path class="foreground" aria-hidden="true" d="" pointer-events="none" display="none"/></g></g><g class="mark-group role-axis" role="graphics-symbol" aria-roledescription="axis" aria-label="X-axis titled 'true' for a linear scale with values from 1 to 10"><g transform="translate(0.5,600.5)"><path class="background" aria-hidden="true" d="M0,0h0v0h0Z" pointer-events="none"/><g><g class="mark-rule role-axis-tick" pointer-events="none"><line transform="translate(12,0)" x2="0" y2="5" stroke="#888" stroke-width="1" opacity="1"/><line transform="translate(43,0)" x2="0" y2="5" stroke="#888" stroke-width="1" opacity="1"/><line transform="translate(74,0)" x2="0" y2="5" stroke="#888" stroke-width="1" opacity="1"/><line transform="translate(105,0)" x2="0" y2="5" stroke="#888" stroke-width="1" opacity="1"/><line transform="translate(136,0)" x2="0" y2="5" stroke="#888" stroke-width="1" opacity="1"/><line transform="translate(167,0)" x2="0" y2="5" stroke="#888" stroke-width="1" opacity="1"/><line transform="translate(198,0)" x2="0" y2="5" stroke="#888" stroke-width="1" opacity="1"/><line transform="translate(229,0)" x2="0" y2="5" stroke="#888" stroke-width="1" opacity="1"/><line transform="translate(260,0)" x2="0" y2="5" stroke="#888" stroke-width="1" opacity="1"/><line transform="translate(291,0)" x2="0" y2="5" stroke="#888" stroke-width="1" opacity="1"/><line transform="translate(322,0)" x2="0" y2="5" stroke="#888" stroke-width="1" opacity="1"/><line transform="translate(353,0)" x2="0" y2="5" stroke="#888" stroke-width="1" opacity="1"/><line transform="translate(384,0)" x2="0" y2="5" stroke="#888" stroke-width="1" opacity="1"/><line transform="translate(415,0)" x2="0" y2="5" stroke="#888" stroke-width="1" opacity="1"/><line transform="translate(446,0)" x2="0" y2="5" stroke="#888" stroke-width="1" opacity="1"/><line transform="translate(477,0)" x2="0" y2="5" stroke="#888" stroke-width="1" opacity="1"/><line transform="translate(508,0)" x2="0" y2="5" stroke="#888" stroke-width="1" opacity="1"/><line transform="translate(539,0)" x2="0" y2="5" stroke="#888" stroke-width="1" opacity="1"/><line transform="translate(570,0)" x2="0" y2="5" stroke="#888" stroke-width="1" opacity="1"/></g><g class="mark-text role-axis-label" pointer-events="none"><text text-anchor="middle" transform="translate(11.538461538461542,15)" font-family="sans-serif" font-size="10px" fill="#000" opacity="1">1.0</text><text text-anchor="middle" transform="translate(42.55583126550869,15)" font-family="sans-serif" font-size="10px" fill="#000" opacity="1">1.5</text><text text-anchor="middle" transform="translate(73.57320099255583,15)" font-family="sans-serif" font-size="10px" fill="#000" opacity="1">2.0</text><text text-anchor="middle" transform="translate(104.59057071960297,15)" font-family="sans-serif" font-size="10px" fill="#000" opacity="1">2.5</text><text text-anchor="middle" transform="translate(135.6079404466501,15)" font-family="sans-serif" font-size="10px" fill="#000" opacity="1">3.0</text><text text-anchor="middle" transform="translate(166.62531017369727,15)" font-family="sans-serif" font-size="10px" fill="#000" opacity="1">3.5</text><text text-anchor="middle" transform="translate(197.6426799007444,15)" font-family="sans-serif" font-size="10px" fill="#000" opacity="1">4.0</text><text text-anchor="middle" transform="translate(228.66004962779155,15)" font-family="sans-serif" font-size="10px" fill="#000" opacity="1">4.5</text><text text-anchor="middle" transform="translate(259.67741935483866,15)" font-family="sans-serif" font-size="10px" fill="#000" opacity="1">5.0</text><text text-anchor="middle" transform="translate(290.6947890818858,15)" font-family="sans-serif" font-size="10px" fill="#000" opacity="1">5.5</text><text text-anchor="middle" transform="translate(321.71215880893294,15)" font-family="sans-serif" font-size="10px" fill="#000" opacity="1">6.0</text><text text-anchor="middle" transform="translate(352.7295285359801,15)" font-family="sans-serif" font-size="10px" fill="#000" opacity="1">6.5</text><text text-anchor="middle" transform="translate(383.7468982630272,15)" font-family="sans-serif" font-size="10px" fill="#000" opacity="1">7.0</text><text text-anchor="middle" transform="translate(414.7642679900744,15)" font-family="sans-serif" font-size="10px" fill="#000" opacity="1">7.5</text><text text-anchor="middle" transform="translate(445.78163771712155,15)" font-family="sans-serif" font-size="10px" fill="#000" opacity="1">8.0</text><text text-anchor="middle" transform="translate(476.7990074441687,15)" font-family="sans-serif" font-size="10px" fill="#000" opacity="1">8.5</text><text text-anchor="middle" transform="translate(507.81637717121583,15)" font-family="sans-serif" font-size="10px" fill="#000" opacity="1">9.0</text><text text-anchor="middle" transform="translate(538.833746898263,15)" font-family="sans-serif" font-size="10px" fill="#000" opacity="1">9.5</text><text text-anchor="middle" transform="translate(569.8511166253102,15)" font-family="sans-serif" font-size="10px" fill="#000" opacity="1">10.0</text></g><g class="mark-rule role-axis-domain" pointer-events="none"><line transform="translate(0,0)" x2="600" y2="0" stroke="#888" stroke-width="1" opacity="1"/></g><g class="mark-text role-axis-title" pointer-events="none"><text text-anchor="middle" transform="translate(300,30)" font-family="sans-serif" font-size="11px" font-weight="bold" fill="#000" opacity="1">true</text></g></g><path class="foreground" aria-hidden="true" d="" pointer-events="none" display="none"/></g></g><g class="mark-group role-axis" role="graphics-symbol" aria-roledescription="axis" aria-label="Y-axis titled 'pred' for a linear scale with values from 1 to 10"><g transform="translate(0.5,0.5)"><path class="background" aria-hidden="true" d="M0,0h0v0h0Z" pointer-events="none"/><g><g class="mark-rule role-axis-tick" pointer-events="none"><line transform="translate(0,588)" x2="-5" y2="0" stroke="#888" stroke-width="1" opacity="1"/><line transform="translate(0,557)" x2="-5" y2="0" stroke="#888" stroke-width="1" opacity="1"/><line transform="translate(0,526)" x2="-5" y2="0" stroke="#888" stroke-width="1" opacity="1"/><line transform="translate(0,495)" x2="-5" y2="0" stroke="#888" stroke-width="1" opacity="1"/><line transform="translate(0,464)" x2="-5" y2="0" stroke="#888" stroke-width="1" opacity="1"/><line transform="translate(0,433)" x2="-5" y2="0" stroke="#888" stroke-width="1" opacity="1"/><line transform="translate(0,402)" x2="-5" y2="0" stroke="#888" stroke-width="1" opacity="1"/><line transform="translate(0,371)" x2="-5" y2="0" stroke="#888" stroke-width="1" opacity="1"/><line transform="translate(0,340)" x2="-5" y2="0" stroke="#888" stroke-width="1" opacity="1"/><line transform="translate(0,309)" x2="-5" y2="0" stroke="#888" stroke-width="1" opacity="1"/><line transform="translate(0,278)" x2="-5" y2="0" stroke="#888" stroke-width="1" opacity="1"/><line transform="translate(0,247)" x2="-5" y2="0" stroke="#888" stroke-width="1" opacity="1"/><line transform="translate(0,216)" x2="-5" y2="0" stroke="#888" stroke-width="1" opacity="1"/><line transform="translate(0,185)" x2="-5" y2="0" stroke="#888" stroke-width="1" opacity="1"/><line transform="translate(0,154)" x2="-5" y2="0" stroke="#888" stroke-width="1" opacity="1"/><line transform="translate(0,123)" x2="-5" y2="0" stroke="#888" stroke-width="1" opacity="1"/><line transform="translate(0,92)" x2="-5" y2="0" stroke="#888" stroke-width="1" opacity="1"/><line transform="translate(0,61)" x2="-5" y2="0" stroke="#888" stroke-width="1" opacity="1"/><line transform="translate(0,30)" x2="-5" y2="0" stroke="#888" stroke-width="1" opacity="1"/></g><g class="mark-text role-axis-label" pointer-events="none"><text text-anchor="end" transform="translate(-7,591.4615384615385)" font-family="sans-serif" font-size="10px" fill="#000" opacity="1">1.0</text><text text-anchor="end" transform="translate(-7,560.4441687344913)" font-family="sans-serif" font-size="10px" fill="#000" opacity="1">1.5</text><text text-anchor="end" transform="translate(-7,529.4267990074442)" font-family="sans-serif" font-size="10px" fill="#000" opacity="1">2.0</text><text text-anchor="end" transform="translate(-7,498.40942928039703)" font-family="sans-serif" font-size="10px" fill="#000" opacity="1">2.5</text><text text-anchor="end" transform="translate(-7,467.3920595533499)" font-family="sans-serif" font-size="10px" fill="#000" opacity="1">3.0</text><text text-anchor="end" transform="translate(-7,436.37468982630276)" font-family="sans-serif" font-size="10px" fill="#000" opacity="1">3.5</text><text text-anchor="end" transform="translate(-7,405.3573200992556)" font-family="sans-serif" font-size="10px" fill="#000" opacity="1">4.0</text><text text-anchor="end" transform="translate(-7,374.3399503722085)" font-family="sans-serif" font-size="10px" fill="#000" opacity="1">4.5</text><text text-anchor="end" transform="translate(-7,343.32258064516134)" font-family="sans-serif" font-size="10px" fill="#000" opacity="1">5.0</text><text text-anchor="end" transform="translate(-7,312.3052109181142)" font-family="sans-serif" font-size="10px" fill="#000" opacity="1">5.5</text><text text-anchor="end" transform="translate(-7,281.28784119106706)" font-family="sans-serif" font-size="10px" fill="#000" opacity="1">6.0</text><text text-anchor="end" transform="translate(-7,250.2704714640199)" font-family="sans-serif" font-size="10px" fill="#000" opacity="1">6.5</text><text text-anchor="end" transform="translate(-7,219.25310173697275)" font-family="sans-serif" font-size="10px" fill="#000" opacity="1">7.0</text><text text-anchor="end" transform="translate(-7,188.23573200992556)" font-family="sans-serif" font-size="10px" fill="#000" opacity="1">7.5</text><text text-anchor="end" transform="translate(-7,157.21836228287842)" font-family="sans-serif" font-size="10px" fill="#000" opacity="1">8.0</text><text text-anchor="end" transform="translate(-7,126.20099255583128)" font-family="sans-serif" font-size="10px" fill="#000" opacity="1">8.5</text><text text-anchor="end" transform="translate(-7,95.18362282878414)" font-family="sans-serif" font-size="10px" fill="#000" opacity="1">9.0</text><text text-anchor="end" transform="translate(-7,64.166253101737)" font-family="sans-serif" font-size="10px" fill="#000" opacity="1">9.5</text><text text-anchor="end" transform="translate(-7,33.14888337468986)" font-family="sans-serif" font-size="10px" fill="#000" opacity="1">10.0</text></g><g class="mark-rule role-axis-domain" pointer-events="none"><line transform="translate(0,600)" x2="0" y2="-600" stroke="#888" stroke-width="1" opacity="1"/></g><g class="mark-text role-axis-title" pointer-events="none"><text text-anchor="middle" transform="translate(-30.462890625,300) rotate(-90) translate(0,-2)" font-family="sans-serif" font-size="11px" font-weight="bold" fill="#000" opacity="1">pred</text></g></g><path class="foreground" aria-hidden="true" d="" pointer-events="none" display="none"/></g></g><g class="mark-line role-mark layer_0_marks" role="graphics-object" aria-roledescription="line mark container"><path aria-label="x: 0.814; y: 0.814" role="graphics-symbol" aria-roledescription="line mark" d="M0,600L600,0" stroke="gray" stroke-width="2" stroke-dasharray="5,5"/></g><g class="mark-symbol role-mark layer_1_marks" role="graphics-object" aria-roledescription="symbol mark container"><path aria-label="true: 1; pred: 1.1" role="graphics-symbol" aria-roledescription="point" transform="translate(11.538461538461542,582.258064516129)" d="M3.873,0A3.873,3.873,0,1,1,-3.873,0A3.873,3.873,0,1,1,3.873,0" fill="steelblue" stroke-width="2" opacity="0.7"/><path aria-label="true: 2; pred: 2.2" role="graphics-symbol" aria-roledescription="point" transform="translate(73.57320099255583,514.0198511166253)" d="M3.873,0A3.873,3.873,0,1,1,-3.873,0A3.873,3.873,0,1,1,3.873,0" fill="steelblue" stroke-width="2" opacity="0.7"/><path aria-label="true: 3; pred: 2.8" role="graphics-symbol" aria-roledescription="point" transform="translate(135.6079404466501,476.7990074441687)" d="M3.873,0A3.873,3.873,0,1,1,-3.873,0A3.873,3.873,0,1,1,3.873,0" fill="steelblue" stroke-width="2" opacity="0.7"/><path aria-label="true: 4; pred: 4.1" role="graphics-symbol" aria-roledescription="point" transform="translate(197.6426799007444,396.1538461538462)" d="M3.873,0A3.873,3.873,0,1,1,-3.873,0A3.873,3.873,0,1,1,3.873,0" fill="steelblue" stroke-width="2" opacity="0.7"/><path aria-label="true: 5; pred: 5.3" role="graphics-symbol" aria-roledescription="point" transform="translate(259.67741935483866,321.712158808933)" d="M3.873,0A3.873,3.873,0,1,1,-3.873,0A3.873,3.873,0,1,1,3.873,0" fill="steelblue" stroke-width="2" opacity="0.7"/><path aria-label="true: 6; pred: 5.9" role="graphics-symbol" aria-roledescription="point" transform="translate(321.71215880893294,284.49131513647643)" d="M3.873,0A3.873,3.873,0,1,1,-3.873,0A3.873,3.873,0,1,1,3.873,0" fill="steelblue" stroke-width="2" opacity="0.7"/><path aria-label="true: 7; pred: 7.2" role="graphics-symbol" aria-roledescription="point" transform="translate(383.7468982630272,203.84615384615387)" d="M3.873,0A3.873,3.873,0,1,1,-3.873,0A3.873,3.873,0,1,1,3.873,0" fill="steelblue" stroke-width="2" opacity="0.7"/><path aria-label="true: 8; pred: 7.8" role="graphics-symbol" aria-roledescription="point" transform="translate(445.78163771712155,166.62531017369733)" d="M3.873,0A3.873,3.873,0,1,1,-3.873,0A3.873,3.873,0,1,1,3.873,0" fill="steelblue" stroke-width="2" opacity="0.7"/><path aria-label="true: 9; pred: 9.1" role="graphics-symbol" aria-roledescription="point" transform="translate(507.81637717121583,85.98014888337475)" d="M3.873,0A3.873,3.873,0,1,1,-3.873,0A3.873,3.873,0,1,1,3.873,0" fill="steelblue" stroke-width="2" opacity="0.7"/><path aria-label="true: 10; pred: 10.3" role="graphics-symbol" aria-roledescription="point" transform="translate(569.8511166253102,11.538461538461565)" d="M3.873,0A3.873,3.873,0,1,1,-3.873,0A3.873,3.873,0,1,1,3.873,0" fill="steelblue" stroke-width="2" opacity="0.7"/></g></g><path class="foreground" aria-hidden="true" d="" display="none"/></g></g></g></svg>