<svg xmlns="http://www.w3.org/2000/svg" xmlns:xlink="http://www.w3.org/1999/xlink" version="1.1" class="marks" width="659" height="445" viewBox="0 0 659 445"><rect width="659" height="445" fill="white"/><g fill="none" stroke-miterlimit="10" transform="translate(53,10)"><g class="mark-group role-frame root" role="graphics-object" aria-roledescription="group mark container"><g transform="translate(0,0)"><path class="background" aria-hidden="true" d="M0,0h600v400h-600Z" stroke="#ddd" stroke-width="0"/><g><g class="mark-group role-axis" aria-hidden="true"><g transform="translate(0.5,0.5)"><path class="background" aria-hidden="true" d="M0,0h0v0h0Z" pointer-events="none"/><g><g class="mark-rule role-axis-grid" pointer-events="none"><line transform="translate(0,400)" x2="600" y2="0" stroke="gray" stroke-opacity="0.5" stroke-width="1" stroke-dasharray="3,3" opacity="1"/><line transform="translate(0,364)" x2="600" y2="0" stroke="gray" stroke-opacity="0.5" stroke-width="1" stroke-dasharray="3,3" opacity="1"/><line transform="translate(0,327)" x2="600" y2="0" stroke="gray" stroke-opacity="0.5" stroke-width="1" stroke-dasharray="3,3" opacity="1"/><line transform="translate(0,291)" x2="600" y2="0" stroke="gray" stroke-opacity="0.5" stroke-width="1" stroke-dasharray="3,3" opacity="1"/><line transform="translate(0,255)" x2="600" y2="0" stroke="gray" stroke-opacity="0.5" stroke-width="1" stroke-dasharray="3,3" opacity="1"/><line transform="translate(0,218)" x2="600" y2="0" stroke="gray" stroke-opacity="0.5" stroke-width="1" stroke-dasharray="3,3" opacity="1"/><line transform="translate(0,182)" x2="600" y2="0" stroke="gray" stroke-opacity="0.5" stroke-width="1" stroke-dasharray="3,3" opacity="1"/><line transform="translate(0,145)" x2="600" y2="0" stroke="gray" stroke-opacity="0.5" stroke-width="1" stroke-dasharray="3,3" opacity="1"/><line transform="translate(0,109)" x2="600" y2="0" stroke="gray" stroke-opacity="0.5" stroke-width="1" stroke-dasharray="3,3" opacity="1"/><line transform="translate(0,73)" x2="600" y2="0" stroke="gray" stroke-opacity="0.5" stroke-width="1" stroke-dasharray="3,3" opacity="1"/><line transform="translate(0,36)" x2="600" y2="0" stroke="gray" stroke-opacity="0.5" stroke-width="1" stroke-dasharray="3,3" opacity="1"/><line transform="translate(0,0)" x2="600" y2="0" stroke="gray" stroke-opacity="0.5" stroke-width="1" stroke-dasharray="3,3" opacity="1"/></g></g><path class="foreground" aria-hidden="true" d="" pointer-events="none" display="none"/></g></g><g class="mark-group role-axis" role="graphics-symbol" aria-roledescription="axis" aria-label="X-axis titled 'x' for a discrete scale with 3 values: A, B, C"><g transform="translate(0.5,400.5)"><path class="background" aria-hidden="true" d="M0,0h0v0h0Z" pointer-events="none"/><g><g class="mark-rule role-axis-tick" pointer-events="none"><line transform="translate(100,0)" x2="0" y2="5" stroke="#888" stroke-width="1" opacity="1"/><line transform="translate(300,0)" x2="0" y2="5" stroke="#888" stroke-width="1" opacity="1"/><line transform="translate(500,0)" x2="0" y2="5" stroke="#888" stroke-width="1" opacity="1"/></g><g class="mark-text role-axis-label" pointer-events="none"><text text-anchor="end" transform="translate(100,7) rotate(270) translate(0,3)" font-family="sans-serif" font-size="10px" fill="#000" opacity="1">A</text><text text-anchor="end" transform="translate(300,7) rotate(270) translate(0,3)" font-family="sans-serif" font-size="10px" fill="#000" opacity="1">B</text><text text-anchor="end" transform="translate(500,7) rotate(270) translate(0,3)" font-family="sans-serif" font-size="10px" fill="#000" opacity="1">C</text></g><g class="mark-rule role-axis-domain" pointer-events="none"><line transform="translate(0,0)" x2="600" y2="0" stroke="#888" stroke-width="1" opacity="1"/></g><g class="mark-text role-axis-title" pointer-events="none"><text text-anchor="middle" transform="translate(300,27.2216796875)" font-family="sans-serif" font-size="11px" font-weight="bold" fill="#000" opacity="1">x</text></g></g><path class="foreground" aria-hidden="true" d="" pointer-events="none" display="none"/></g></g><g class="mark-group role-axis" role="graphics-symbol" aria-roledescription="axis" aria-label="Y-axis titled 'relative deviation' for a linear scale with values from −0.10 to 0.12"><g transform="translate(0.5,0.5)"><path class="background" aria-hidden="true" d="M0,0h0v0h0Z" pointer-events="none"/><g><g class="mark-rule role-axis-tick" pointer-events="none"><line transform="translate(0,400)" x2="-5" y2="0" stroke="#888" stroke-width="1" opacity="1"/><line transform="translate(0,364)" x2="-5" y2="0" stroke="#888" stroke-width="1" opacity="1"/><line transform="translate(0,327)" x2="-5" y2="0" stroke="#888" stroke-width="1" opacity="1"/><line transform="translate(0,291)" x2="-5" y2="0" stroke="#888" stroke-width="1" opacity="1"/><line transform="translate(0,255)" x2="-5" y2="0" stroke="#888" stroke-width="1" opacity="1"/><line transform="translate(0,218)" x2="-5" y2="0" stroke="#888" stroke-width="1" opacity="1"/><line transform="translate(0,182)" x2="-5" y2="0" stroke="#888" stroke-width="1" opacity="1"/><line transform="translate(0,145)" x2="-5" y2="0" stroke="#888" stroke-width="1" opacity="1"/><line transform="translate(0,109)" x2="-5" y2="0" stroke="#888" stroke-width="1" opacity="1"/><line transform="translate(0,73)" x2="-5" y2="0" stroke="#888" stroke-width="1" opacity="1"/><line transform="translate(0,36)" x2="-5" y2="0" stroke="#888" stroke-width="1" opacity="1"/><line transform="translate(0,0)" x2="-5" y2="0" stroke="#888" stroke-width="1" opacity="1"/></g><g class="mark-text role-axis-label" pointer-events="none"><text text-anchor="end" transform="translate(-7,403)" font-family="sans-serif" font-size="10px" fill="#000" opacity="1">−0.10</text><text text-anchor="end" transform="translate(-7,366.6363636363636)" font-family="sans-serif" font-size="10px" fill="#000" opacity="1">−0.08</text><text text-anchor="end" transform="translate(-7,330.27272727272725)" font-family="sans-serif" font-size="10px" fill="#000" opacity="1">−0.06</text><text text-anchor="end" transform="translate(-7,293.90909090909093)" font-family="sans-serif" font-size="10px" fill="#000" opacity="1">−0.04</text><text text-anchor="end" transform="translate(-7,257.5454545454545)" font-family="sans-serif" font-size="10px" fill="#000" opacity="1">−0.02</text><text text-anchor="end" transform="translate(-7,221.18181818181816)" font-family="sans-serif" font-size="10px" fill="#000" opacity="1">0.00</text><text text-anchor="end" transform="translate(-7,184.81818181818178)" font-family="sans-serif" font-size="10px" fill="#000" opacity="1">0.02</text><text text-anchor="end" transform="translate(-7,148.4545454545454)" font-family="sans-serif" font-size="10px" fill="#000" opacity="1">0.04</text><text text-anchor="end" transform="translate(-7,112.09090909090908)" font-family="sans-serif" font-size="10px" fill="#000" opacity="1">0.06</text><text text-anchor="end" transform="translate(-7,75.72727272727275)" font-family="sans-serif" font-size="10px" fill="#000" opacity="1">0.08</text><text text-anchor="end" transform="translate(-7,39.36363636363633)" font-family="sans-serif" font-size="10px" fill="#000" opacity="1">0.10</text><text text-anchor="end" transform="translate(-7,3)" font-family="sans-serif" font-size="10px" fill="#000" opacity="1">0.12</text></g><g class="mark-rule role-axis-domain" pointer-events="none"><line transform="translate(0,400)" x2="0" y2="-400" stroke="#888" stroke-width="1" opacity="1"/></g><g class="mark-text role-axis-title" pointer-events="none"><text text-anchor="middle" transform="translate(-36.302734375,200) rotate(-90) translate(0,-2)" font-family="sans-serif" font-size="11px" font-weight="bold" fill="#000" opacity="1">relative deviation</text></g></g><path class="foreground" aria-hidden="true" d="" pointer-events="none" display="none"/></g></g><g class="mark-symbol role-mark layer_0_marks" role="graphics-object" aria-roledescription="symbol mark container"><path aria-label="x: A; relative deviation: −0.1" role="graphics-symbol" aria-roledescription="point" transform="translate(100,399.99999999999994)" d="M2.739,0A2.739,2.739,0,1,1,-2.739,0A2.739,2.739,0,1,1,2.739,0" fill="steelblue" stroke-width="2" opacity="0.7"/><path aria-label="x: A; relative deviation: −0.05" role="graphics-symbol" aria-roledescription="point" transform="translate(100,309.0909090909092)" d="M2.739,0A2.739,2.739,0,1,1,-2.739,0A2.739,2.739,0,1,1,2.739,0" fill="steelblue" stroke-width="2" opacity="0.7"/><path aria-label="x: A; relative deviation: 0" role="graphics-symbol" aria-roledescription="point" transform="translate(100,218.18181818181816)" d="M2.739,0A2.739,2.739,0,1,1,-2.739,0A2.739,2.739,0,1,1,2.739,0" fill="steelblue" stroke-width="2" opacity="0.7"/><path aria-label="x: A; relative deviation: 0.05" role="graphics-symbol" aria-roledescription="point" transform="translate(100,127.27272727272721)" d="M2.739,0A2.739,2.739,0,1,1,-2.739,0A2.739,2.739,0,1,1,2.739,0" fill="steelblue" stroke-width="2" opacity="0.7"/><path aria-label="x: A; relative deviation: 0.1" role="graphics-symbol" aria-roledescription="point" transform="translate(100,36.363636363636196)" d="M2.739,0A2.739,2.739,0,1,1,-2.739,0A2.739,2.739,0,1,1,2.739,0" fill="steelblue" stroke-width="2" opacity="0.7"/><path aria-label="x: B; relative deviation: −0.05" role="graphics-symbol" aria-roledescription="point" transform="translate(300,309.0909090909092)" d="M2.739,0A2.739,2.739,0,1,1,-2.739,0A2.739,2.739,0,1,1,2.739,0" fill="steelblue" stroke-width="2" opacity="0.7"/><path aria-label="x: B; relative deviation: −0.025" role="graphics-symbol" aria-roledescription="point" transform="translate(300,263.6363636363637)" d="M2.739,0A2.739,2.739,0,1,1,-2.739,0A2.739,2.739,0,1,1,2.739,0" fill="steelblue" stroke-width="2" opacity="0.7"/><path aria-label="x: B; relative deviation: 0" role="graphics-symbol" aria-roledescription="point" transform="translate(300,218.18181818181816)" d="M2.739,0A2.739,2.739,0,1,1,-2.739,0A2.739,2.739,0,1,1,2.739,0" fill="steelblue" stroke-width="2" opacity="0.7"/><path aria-label="x: B; relative deviation: 0.025" role="graphics-symbol" aria-roledescription="point" transform="translate(300,172.7272727272729)" d="M2.739,0A2.739,2.739,0,1,1,-2.739,0A2.739,2.739,0,1,1,2.739,0" fill="steelblue" stroke-width="2" opacity="0.7"/><path aria-label="x: B; relative deviation: 0.05" role="graphics-symbol" aria-roledescription="point" transform="translate(300,127.27272727272721)" d="M2.739,0A2.739,2.739,0,1,1,-2.739,0A2.739,2.739,0,1,1,2.739,0" fill="steelblue" stroke-width="2" opacity="0.7"/><path aria-label="x: C; relative deviation: −0.0333333333333" role="graphics-symbol" aria-roledescription="point" transform="translate(500,278.7878787878788)" d="M2.739,0A2.739,2.739,0,1,1,-2.739,0A2.739,2.739,0,1,1,2.739,0" fill="steelblue" stroke-width="2" opacity="0.7"/><path aria-label="x: C; relative deviation: −0.0166666666667" role="graphics-symbol" aria-roledescription="point" transform="translate(500,248.48484848484836)" d="M2.739,0A2.739,2.739,0,1,1,-2.739,0A2.739,2.739,0,1,1,2.739,0" fill="steelblue" stroke-width="2" opacity="0.7"/><path aria-label="x: C; relative deviation: 0" role="graphics-symbol" aria-roledescription="point" transform="translate(500,218.18181818181816)" d="M2.739,0A2.739,2.739,0,1,1,-2.739,0A2.739,2.739,0,1,1,2.739,0" fill="steelblue" stroke-width="2" opacity="0.7"/><path aria-label="x: C; relative deviation: 0.0166666666667" role="graphics-symbol" aria-roledescription="point" transform="translate(500,187.878787878788)" d="M2.739,0A2.739,2.739,0,1,1,-2.739,0A2.739,2.739,0,1,1,2.739,0" fill="steelblue" stroke-width="2" opacity="0.7"/><path aria-label="x: C; relative deviation: 0.0333333333333" role="graphics-symbol" aria-roledescription="point" transform="translate(500,157.57575757575754)" d="M2.739,0A2.739,2.739,0,1,1,-2.739,0A2.739,2.739,0,1,1,2.739,0" fill="steelblue" stroke-width="2" opacity="0.7"/></g><g class="mark-rule role-mark layer_1_marks" role="graphics-object" aria-roledescription="rule mark container"><line aria-label="y: 0" role="graphics-symbol" aria-roledescription="rule mark" transform="translate(600,218.18181818181816)" x2="-600" y2="0" stroke="red" stroke-dasharray="5,5"/></g></g><path class="foreground" aria-hidden="true" d="" display="none"/></g></g></g></svg>